<svg width="80" height="80" viewBox="0 0 80 80" fill="none" xmlns="http://www.w3.org/2000/svg">
<circle cx="40" cy="40" r="40" fill="#CCD4DE"/>
<circle cx="40" cy="40" r="40" fill="#EDEDED"/>
<mask id="mask0_1833_69659" style="mask-type:alpha" maskUnits="userSpaceOnUse" x="0" y="0" width="80" height="80">
<circle cx="40" cy="40" r="40" fill="#C4C4C4"/>
</mask>
<g mask="url(#mask0_1833_69659)">
<path d="M8.32732 94.18H72.7208C67.3432 76.5304 54.7954 64.1895 40.1104 64.1895C25.4254 64.1895 12.8087 76.5993 7.5 94.2489C7.70683 94.18 8.05155 94.18 8.32732 94.18Z" fill="#374656"/>
<path d="M40.6619 76.045C36.6632 76.045 33.4229 72.8046 33.4229 68.8059V51.8457H47.8321V68.8748C47.901 72.8735 44.6607 76.045 40.6619 76.045Z" fill="#F7CBB5"/>
<mask id="mask1_1833_69659" style="mask-type:alpha" maskUnits="userSpaceOnUse" x="33" y="51" width="15" height="26">
<path d="M40.6621 76.045C36.6633 76.045 33.423 72.8046 33.423 68.8059V51.8457H47.8322V68.8748C47.9012 72.8735 44.6608 76.045 40.6621 76.045Z" fill="#F7CBB5"/>
</mask>
<g mask="url(#mask1_1833_69659)">
<path d="M31.4921 61.2227C31.4921 61.2227 37.766 69.427 50.4516 65.2215C58.1733 62.6705 53.4162 55.2246 53.4162 55.2246L30.5958 61.0159" fill="#EDA18A"/>
</g>
<path d="M20.8059 47.227C24.9562 47.227 28.3207 43.8625 28.3207 39.7121C28.3207 35.5618 24.9562 32.1973 20.8059 32.1973C16.6555 32.1973 13.291 35.5618 13.291 39.7121C13.291 43.8625 16.6555 47.227 20.8059 47.227Z" fill="#EDA18A"/>
<path d="M59.4826 47.227C63.633 47.227 66.9975 43.8625 66.9975 39.7121C66.9975 35.5618 63.633 32.1973 59.4826 32.1973C55.3323 32.1973 51.9678 35.5618 51.9678 39.7121C51.9678 43.8625 55.3323 47.227 59.4826 47.227Z" fill="#EDA18A"/>
<path d="M40.2474 62.1915C51.5942 62.1915 60.7926 51.5114 60.7926 38.337C60.7926 25.1625 51.5942 14.4824 40.2474 14.4824C28.9006 14.4824 19.7021 25.1625 19.7021 38.337C19.7021 51.5114 28.9006 62.1915 40.2474 62.1915Z" fill="#F7CBB5"/>
<path d="M30.6642 43.3628C31.3115 43.3628 31.8363 42.3442 31.8363 41.0876C31.8363 39.8311 31.3115 38.8125 30.6642 38.8125C30.0169 38.8125 29.4922 39.8311 29.4922 41.0876C29.4922 42.3442 30.0169 43.3628 30.6642 43.3628Z" fill="#374656"/>
<path d="M49.0724 43.3628C49.7197 43.3628 50.2445 42.3442 50.2445 41.0876C50.2445 39.8311 49.7197 38.8125 49.0724 38.8125C48.4251 38.8125 47.9004 39.8311 47.9004 41.0876C47.9004 42.3442 48.4251 43.3628 49.0724 43.3628Z" fill="#374656"/>
<path d="M38.4553 41.0254C38.4553 41.0254 37.2143 46.4719 38.2484 47.575C39.2826 48.6781 40.1099 47.644 41.0062 47.1614" stroke="#EDA18A" stroke-width="0.275775" stroke-miterlimit="10" stroke-linecap="round" stroke-linejoin="round"/>
<path d="M35.9741 50.5383C35.9741 50.5383 37.4909 53.365 40.4555 52.8134C43.42 52.3308 44.0405 50.4004 44.0405 50.4004" stroke="#EDA18A" stroke-width="0.275775" stroke-miterlimit="10" stroke-linecap="round" stroke-linejoin="round"/>
<path d="M27.2178 50.053C29.3501 50.053 31.0786 48.7566 31.0786 47.1574C31.0786 45.5581 29.3501 44.2617 27.2178 44.2617C25.0855 44.2617 23.3569 45.5581 23.3569 47.1574C23.3569 48.7566 25.0855 50.053 27.2178 50.053Z" fill="#F2A0A0"/>
<path d="M53.4165 50.053C55.5488 50.053 57.2774 48.7566 57.2774 47.1574C57.2774 45.5581 55.5488 44.2617 53.4165 44.2617C51.2842 44.2617 49.5557 45.5581 49.5557 47.1574C49.5557 48.7566 51.2842 50.053 53.4165 50.053Z" fill="#F2A0A0"/>
<path d="M33.1487 34.2641C33.1487 34.2641 31.2183 33.2299 28.0469 34.6778" stroke="#374656" stroke-width="0.275775" stroke-miterlimit="10" stroke-linecap="round" stroke-linejoin="round"/>
<path d="M46.8652 34.2641C46.8652 34.2641 48.7957 33.2299 51.9671 34.6778" stroke="#374656" stroke-width="0.275775" stroke-miterlimit="10" stroke-linecap="round" stroke-linejoin="round"/>
<path d="M25.7001 22.8911C25.7001 22.8911 33.146 30.6128 40.5919 32.1296L40.3161 27.9929C40.3161 27.9929 53.4154 39.2997 57.4831 44.1258C61.5508 48.9518 53.898 65.912 53.898 65.912C53.898 65.912 67.7557 56.6735 69.5483 40.7475C71.3408 24.6836 57.0005 5.58622 39.5577 7.65453C22.115 9.72285 26.4584 14.8247 26.4584 14.8247C26.4584 14.8247 21.0808 13.3079 16.7374 18.4098C12.3939 23.5116 11.084 39.0239 11.084 43.1606C11.084 53.9158 26.7342 55.4325 26.7342 55.4325C26.7342 55.4325 17.7715 50.5375 22.115 36.6798C24.3901 29.5097 25.7001 22.8911 25.7001 22.8911Z" fill="#CD454B"/>
</g>
</svg>
