<svg width="80" height="80" viewBox="0 0 80 80" fill="none" xmlns="http://www.w3.org/2000/svg">
<circle cx="40" cy="40" r="40" fill="#CCD4DE"/>
<circle cx="40" cy="40" r="40" fill="#EDEDED"/>
<mask id="mask0_1833_69762" style="mask-type:alpha" maskUnits="userSpaceOnUse" x="0" y="0" width="80" height="80">
<circle cx="40" cy="40" r="40" fill="#C4C4C4"/>
</mask>
<g mask="url(#mask0_1833_69762)">
<path d="M19.3853 25.1397C19.3853 23.7657 20.7388 22.8009 22.0376 23.249L42.5943 30.341C43.4009 30.6193 43.9421 31.3785 43.9421 32.2317V66.7392H19.3853V25.1397Z" fill="#1773BF"/>
<path d="M43.9421 37.9946C43.9421 37.3077 44.6188 36.8253 45.2682 37.0493L59.9403 42.1111C60.3436 42.2503 60.6142 42.6299 60.6142 43.0565V66.7395H43.9421V37.9946Z" fill="#2F87CF"/>
<path d="M9.51776 66.7402H70.4823C70.4823 66.7402 66.5459 71.9423 61.9564 74.237C57.367 76.5317 54.983 80.2386 40.0684 80.2386C25.1537 80.2386 24.5923 78.58 16.7681 73.1779C13.6522 71.0265 9.51776 66.7402 9.51776 66.7402Z" fill="#374656"/>
<path d="M25.1377 54.0234C25.1377 53.4712 25.5854 53.0234 26.1377 53.0234H37.1892C37.7415 53.0234 38.1892 53.4712 38.1892 54.0234V66.7389H25.1377V54.0234Z" fill="#374656"/>
<path d="M47.9792 56.5547C47.9792 56.0024 48.427 55.5547 48.9792 55.5547H55.5764C56.1287 55.5547 56.5764 56.0024 56.5764 56.5547V66.7385H47.9792V56.5547Z" fill="#374656"/>
</g>
</svg>
