<svg width="80" height="80" viewBox="0 0 80 80" fill="none" xmlns="http://www.w3.org/2000/svg">
<circle cx="40" cy="40" r="40" fill="#EDEDED"/>
<mask id="mask0_1833_69559" style="mask-type:alpha" maskUnits="userSpaceOnUse" x="0" y="0" width="80" height="80">
<circle cx="40" cy="40" r="40" fill="#C4C4C4"/>
</mask>
<g mask="url(#mask0_1833_69559)">
<path d="M6.75675 92.4481H74.1679C68.5431 73.9779 55.3945 61.0098 40.0074 61.0098C24.6204 61.0098 11.4429 73.9996 5.83252 92.4986C6.13933 92.4636 6.44795 92.4467 6.75675 92.4481Z" fill="#FA5555"/>
<mask id="mask1_1833_69559" style="mask-type:alpha" maskUnits="userSpaceOnUse" x="5" y="61" width="70" height="32">
<path d="M6.75675 92.4481H74.1679C68.5431 73.9779 55.3945 61.0098 40.0074 61.0098C24.6204 61.0098 11.4429 73.9996 5.83252 92.4986C6.13933 92.4636 6.44795 92.4467 6.75675 92.4481Z" fill="#D85A2C"/>
</mask>
<g mask="url(#mask1_1833_69559)">
<path d="M39.8705 73.9053C45.7685 73.9053 50.5497 69.1241 50.5497 63.2261C50.5497 57.3281 45.7685 52.5469 39.8705 52.5469C33.9725 52.5469 29.1913 57.3281 29.1913 63.2261C29.1913 69.1241 33.9725 73.9053 39.8705 73.9053Z" stroke="#EDA18A" stroke-width="0.320418" stroke-miterlimit="10"/>
</g>
<path d="M32.5488 45.7695H47.6687V63.6043C47.6668 65.6081 46.8694 67.5291 45.4519 68.9453C44.0343 70.3615 42.1125 71.157 40.1088 71.157C38.105 71.157 36.1832 70.3615 34.7656 68.9453C33.3481 67.5291 32.5507 65.6081 32.5488 63.6043V45.7695Z" fill="#F7CBB5"/>
<mask id="mask2_1833_69559" style="mask-type:alpha" maskUnits="userSpaceOnUse" x="32" y="45" width="16" height="27">
<path d="M32.5488 45.7695H47.6687V63.6043C47.6668 65.6081 46.8694 67.5291 45.4519 68.9453C44.0343 70.3615 42.1125 71.157 40.1088 71.157C38.105 71.157 36.1832 70.3615 34.7656 68.9453C33.3481 67.5291 32.5507 65.6081 32.5488 63.6043V45.7695Z" fill="#F7CBB5"/>
</mask>
<g mask="url(#mask2_1833_69559)">
<path d="M30.4687 60.7405C30.4687 60.7405 37.0539 69.3401 50.3541 64.9067C58.4628 62.199 53.4445 54.4297 53.4445 54.4297L29.53 60.4733" fill="#EDA18A"/>
</g>
<path d="M19.8549 47.5733C24.1936 47.5733 27.7108 44.056 27.7108 39.7173C27.7108 35.3786 24.1936 31.8613 19.8549 31.8613C15.5161 31.8613 11.9989 35.3786 11.9989 39.7173C11.9989 44.056 15.5161 47.5733 19.8549 47.5733Z" fill="#EDA18A"/>
<path d="M60.3627 47.5733C64.7014 47.5733 68.2187 44.056 68.2187 39.7173C68.2187 35.3786 64.7014 31.8613 60.3627 31.8613C56.0239 31.8613 52.5067 35.3786 52.5067 39.7173C52.5067 44.056 56.0239 47.5733 60.3627 47.5733Z" fill="#EDA18A"/>
<path d="M40.2024 63.2471C52.0701 63.2471 61.6908 52.0553 61.6908 38.2495C61.6908 24.4438 52.0701 13.252 40.2024 13.252C28.3347 13.252 18.714 24.4438 18.714 38.2495C18.714 52.0553 28.3347 63.2471 40.2024 63.2471Z" fill="#F7CBB5"/>
<path d="M30.1365 41.4003C30.8025 41.4003 31.3423 40.3173 31.3423 38.9814C31.3423 37.6455 30.8025 36.5625 30.1365 36.5625C29.4705 36.5625 28.9307 37.6455 28.9307 38.9814C28.9307 40.3173 29.4705 41.4003 30.1365 41.4003Z" fill="#374656"/>
<path d="M49.4804 41.4003C50.1463 41.4003 50.6862 40.3173 50.6862 38.9814C50.6862 37.6455 50.1463 36.5625 49.4804 36.5625C48.8144 36.5625 48.2745 37.6455 48.2745 38.9814C48.2745 40.3173 48.8144 41.4003 49.4804 41.4003Z" fill="#374656"/>
<path d="M38.1955 37.3711C38.1955 37.3711 37.0546 46.0574 38.1088 47.2127C39.163 48.368 41.7191 47.0466 42.6289 46.4907" stroke="#EDA18A" stroke-width="0.320418" stroke-linecap="round" stroke-linejoin="round"/>
<path d="M35.7111 51.0655C35.7111 51.0655 37.3212 54.0259 40.4116 53.4844C43.502 52.9429 44.1736 50.9355 44.1736 50.9355" stroke="#EDA18A" stroke-width="0.320418" stroke-linecap="round" stroke-linejoin="round"/>
<path d="M26.5767 48.3868C28.8019 48.3868 30.6058 47.0322 30.6058 45.3614C30.6058 43.6905 28.8019 42.3359 26.5767 42.3359C24.3515 42.3359 22.5476 43.6905 22.5476 45.3614C22.5476 47.0322 24.3515 48.3868 26.5767 48.3868Z" fill="#F2A0A0"/>
<path d="M53.9796 48.3868C56.2048 48.3868 58.0087 47.0322 58.0087 45.3614C58.0087 43.6905 56.2048 42.3359 53.9796 42.3359C51.7544 42.3359 49.9506 43.6905 49.9506 45.3614C49.9506 47.0322 51.7544 48.3868 53.9796 48.3868Z" fill="#F2A0A0"/>
<path d="M32.75 31.3296C32.75 31.3296 30.7355 30.261 27.3779 31.734" stroke="#374656" stroke-width="0.961253" stroke-linecap="round" stroke-linejoin="round"/>
<path d="M47.1271 31.3296C47.1271 31.3296 49.1416 30.261 52.4992 31.734" stroke="#374656" stroke-width="0.961253" stroke-linecap="round" stroke-linejoin="round"/>
<path d="M18.714 36.8282C18.714 36.8282 19.1868 27.4466 20.9957 21.7878C21.8665 19.0635 23.7503 15.0019 23.7503 15.0019C23.7503 15.0019 28.7503 12.498 41.2503 12.498C53.7503 12.498 58.7503 15.0019 58.7503 15.0019L60.781 23.9323C60.781 23.9323 62.3623 34.5682 61.7052 38.2507C61.7052 38.2507 59.1708 21.7878 51.3798 19.9032C45.8994 18.5819 38.7727 19.405 32.8446 19.0945C22.3459 18.5602 18.714 36.8282 18.714 36.8282Z" fill="#374656"/>
</g>
</svg>
