<svg width="80" height="80" viewBox="0 0 80 80" fill="none" xmlns="http://www.w3.org/2000/svg">
<circle cx="40" cy="40" r="40" fill="#CCD4DE"/>
<circle cx="40" cy="40" r="40" fill="#EDEDED"/>
<mask id="mask0_1833_69595" style="mask-type:alpha" maskUnits="userSpaceOnUse" x="0" y="0" width="80" height="80">
<circle cx="40" cy="40" r="40" fill="#C4C4C4"/>
</mask>
<g mask="url(#mask0_1833_69595)">
<path d="M-1.79323 82.4592H49.7567C45.4554 68.3348 35.4005 58.418 23.6339 58.418C11.8673 58.418 1.79031 68.3514 -2.5 82.4978C-2.26538 82.471 -2.02938 82.4581 -1.79323 82.4592Z" fill="#FA5555"/>
<mask id="mask1_1833_69595" style="mask-type:alpha" maskUnits="userSpaceOnUse" x="-3" y="58" width="53" height="25">
<path d="M-1.79323 82.4592H49.7567C45.4554 68.3348 35.4005 58.418 23.6339 58.418C11.8673 58.418 1.79031 68.3514 -2.5 82.4978C-2.26538 82.471 -2.02938 82.4581 -1.79323 82.4592Z" fill="#D85A2C"/>
</mask>
<g mask="url(#mask1_1833_69595)">
<path d="M23.5297 68.2802C28.0399 68.2802 31.6961 64.624 31.6961 60.1138C31.6961 55.6035 28.0399 51.9473 23.5297 51.9473C19.0194 51.9473 15.3632 55.6035 15.3632 60.1138C15.3632 64.624 19.0194 68.2802 23.5297 68.2802Z" stroke="#EDA18A" stroke-width="0.245026" stroke-miterlimit="10"/>
</g>
<path d="M17.9303 46.7656H29.4926V60.4041C29.4911 61.9364 28.8814 63.4054 27.7974 64.4884C26.7134 65.5714 25.2437 66.1797 23.7114 66.1797C22.1791 66.1797 20.7095 65.5714 19.6255 64.4884C18.5415 63.4054 17.9318 61.9364 17.9303 60.4041V46.7656Z" fill="#F7CBB5"/>
<mask id="mask2_1833_69595" style="mask-type:alpha" maskUnits="userSpaceOnUse" x="17" y="46" width="13" height="21">
<path d="M17.9303 46.7656H29.4926V60.4041C29.4911 61.9364 28.8814 63.4054 27.7974 64.4884C26.7134 65.5714 25.2437 66.1797 23.7114 66.1797C22.1791 66.1797 20.7095 65.5714 19.6255 64.4884C18.5415 63.4054 17.9318 61.9364 17.9303 60.4041V46.7656Z" fill="#F7CBB5"/>
</mask>
<g mask="url(#mask2_1833_69595)">
<path d="M16.3399 58.2204C16.3399 58.2204 21.3756 64.7967 31.5465 61.4064C37.7472 59.3358 33.9097 53.3945 33.9097 53.3945L15.6221 58.0161" fill="#EDA18A"/>
</g>
<path d="M8.22189 48.1479C11.5398 48.1479 14.2294 45.4582 14.2294 42.1403C14.2294 38.8225 11.5398 36.1328 8.22189 36.1328C4.90402 36.1328 2.21436 38.8225 2.21436 42.1403C2.21436 45.4582 4.90402 48.1479 8.22189 48.1479Z" fill="#EDA18A"/>
<path d="M39.1991 48.1479C42.5169 48.1479 45.2066 45.4582 45.2066 42.1403C45.2066 38.8225 42.5169 36.1328 39.1991 36.1328C35.8812 36.1328 33.1915 38.8225 33.1915 42.1403C33.1915 45.4582 35.8812 48.1479 39.1991 48.1479Z" fill="#EDA18A"/>
<path d="M23.7834 60.1341C32.8588 60.1341 40.2158 51.5756 40.2158 41.0182C40.2158 30.4608 32.8588 21.9023 23.7834 21.9023C14.7081 21.9023 7.35107 30.4608 7.35107 41.0182C7.35107 51.5756 14.7081 60.1341 23.7834 60.1341Z" fill="#F7CBB5"/>
<path d="M16.0857 43.428C16.595 43.428 17.0078 42.5998 17.0078 41.5783C17.0078 40.5567 16.595 39.7285 16.0857 39.7285C15.5764 39.7285 15.1636 40.5567 15.1636 41.5783C15.1636 42.5998 15.5764 43.428 16.0857 43.428Z" fill="#374656"/>
<path d="M30.8776 43.428C31.3868 43.428 31.7997 42.5998 31.7997 41.5783C31.7997 40.5567 31.3868 39.7285 30.8776 39.7285C30.3683 39.7285 29.9554 40.5567 29.9554 41.5783C29.9554 42.5998 30.3683 43.428 30.8776 43.428Z" fill="#374656"/>
<path d="M22.2484 40.3457C22.2484 40.3457 21.3759 46.9882 22.1821 47.8717C22.9883 48.7551 24.9429 47.7447 25.6386 47.3195" stroke="#EDA18A" stroke-width="0.245026" stroke-linecap="round" stroke-linejoin="round"/>
<path d="M20.3473 50.8201C20.3473 50.8201 21.5786 53.084 23.9419 52.6698C26.3051 52.2557 26.8186 50.7207 26.8186 50.7207" stroke="#EDA18A" stroke-width="0.245026" stroke-linecap="round" stroke-linejoin="round"/>
<path d="M13.3637 48.7658C15.0653 48.7658 16.4447 47.73 16.4447 46.4522C16.4447 45.1745 15.0653 44.1387 13.3637 44.1387C11.662 44.1387 10.2826 45.1745 10.2826 46.4522C10.2826 47.73 11.662 48.7658 13.3637 48.7658Z" fill="#F2A0A0"/>
<path d="M34.3176 48.7658C36.0193 48.7658 37.3987 47.73 37.3987 46.4522C37.3987 45.1745 36.0193 44.1387 34.3176 44.1387C32.616 44.1387 31.2366 45.1745 31.2366 46.4522C31.2366 47.73 32.616 48.7658 34.3176 48.7658Z" fill="#F2A0A0"/>
<path d="M18.0851 35.7219C18.0851 35.7219 16.5446 34.9047 13.9771 36.0312" stroke="#374656" stroke-width="0.735079" stroke-linecap="round" stroke-linejoin="round"/>
<path d="M29.0778 35.7219C29.0778 35.7219 30.6183 34.9047 33.1859 36.0312" stroke="#374656" stroke-width="0.735079" stroke-linecap="round" stroke-linejoin="round"/>
<path d="M7.35013 39.928C7.35013 39.928 6.63232 32.1204 9.09497 28.4264L4.57275 24.5226C4.57275 24.5226 15.2626 16.947 21.8334 17.5322C28.4041 18.1175 31.9048 21.6459 31.9048 21.6459C35.77 20.271 39.4584 20.3096 42.3959 25.3398L39.5192 30.0663C39.5192 30.0663 40.7284 38.1997 40.2259 41.0157C40.2259 41.0157 38.2878 28.4264 32.33 26.9853C28.1391 25.9748 22.6892 26.6043 18.156 26.3669C10.1275 25.9583 7.35013 39.928 7.35013 39.928Z" fill="#374656"/>
<path d="M41.6964 39.4395C41.6964 39.4395 42.5679 56.0488 38.2618 61.4827C33.9557 66.9166 38.5694 72.5043 38.5694 72.5043L77.4782 74.4523C77.4782 74.4523 82.0406 65.4812 78.5034 62.0978C70.3013 54.2033 72.8132 40.8748 72.8132 40.8748L41.6964 39.4395Z" fill="#6A5A54"/>
<path d="M33.8012 82.446H81.6811C77.6826 69.3226 68.3526 60.1465 57.4336 60.1465C46.5145 60.1465 37.1333 69.3739 33.186 82.4973C33.3398 82.446 33.5961 82.446 33.8012 82.446Z" fill="#D85A2C"/>
<path d="M33.8012 82.446H81.6811C77.6826 69.3226 68.3526 60.1465 57.4336 60.1465C46.5145 60.1465 37.1333 69.3739 33.186 82.4973C33.3398 82.446 33.5961 82.446 33.8012 82.446Z" fill="#F4BB00"/>
<path d="M57.8436 68.97C54.8703 68.97 52.4609 66.5606 52.4609 63.5873V50.9766H63.175V63.6386C63.2262 66.5606 60.8169 68.97 57.8436 68.97Z" fill="#F7CBB5"/>
<mask id="mask3_1833_69595" style="mask-type:alpha" maskUnits="userSpaceOnUse" x="52" y="50" width="12" height="19">
<path d="M57.8436 68.97C54.8703 68.97 52.4609 66.5606 52.4609 63.5873V50.9766H63.175V63.6386C63.2262 66.5606 60.8169 68.97 57.8436 68.97Z" fill="#F7CBB5"/>
</mask>
<g mask="url(#mask3_1833_69595)">
<path d="M51.0253 57.9482C51.0253 57.9482 55.6903 64.0485 65.1227 60.9215C70.8642 59.0247 67.327 53.4883 67.327 53.4883L50.3589 57.7944" fill="#EDA18A"/>
</g>
<path d="M43.081 47.5445C46.167 47.5445 48.6687 45.0428 48.6687 41.9568C48.6687 38.8708 46.167 36.3691 43.081 36.3691C39.995 36.3691 37.4933 38.8708 37.4933 41.9568C37.4933 45.0428 39.995 47.5445 43.081 47.5445Z" fill="#EDA18A"/>
<path d="M71.8383 47.5445C74.9243 47.5445 77.426 45.0428 77.426 41.9568C77.426 38.8708 74.9243 36.3691 71.8383 36.3691C68.7523 36.3691 66.2506 38.8708 66.2506 41.9568C66.2506 45.0428 68.7523 47.5445 71.8383 47.5445Z" fill="#EDA18A"/>
<path d="M57.5354 58.6168C65.9723 58.6168 72.8118 50.6756 72.8118 40.8797C72.8118 31.0837 65.9723 23.1426 57.5354 23.1426C49.0984 23.1426 42.2589 31.0837 42.2589 40.8797C42.2589 50.6756 49.0984 58.6168 57.5354 58.6168Z" fill="#F7CBB5"/>
<path d="M50.4113 44.6607C50.8926 44.6607 51.2827 43.9033 51.2827 42.969C51.2827 42.0347 50.8926 41.2773 50.4113 41.2773C49.93 41.2773 49.5398 42.0347 49.5398 42.969C49.5398 43.9033 49.93 44.6607 50.4113 44.6607Z" fill="#374656"/>
<path d="M64.0996 44.6607C64.5809 44.6607 64.9711 43.9033 64.9711 42.969C64.9711 42.0347 64.5809 41.2773 64.0996 41.2773C63.6183 41.2773 63.2281 42.0347 63.2281 42.969C63.2281 43.9033 63.6183 44.6607 64.0996 44.6607Z" fill="#374656"/>
<path d="M56.2032 42.9297C56.2032 42.9297 55.2804 46.9795 56.0494 47.7997C56.8183 48.6199 57.4335 47.851 58.0999 47.4921" stroke="#EDA18A" stroke-width="0.205053" stroke-miterlimit="10" stroke-linecap="round" stroke-linejoin="round"/>
<path d="M54.3567 49.9951C54.3567 49.9951 55.4845 52.0969 57.6888 51.6868C59.8931 51.3279 60.3545 49.8926 60.3545 49.8926" stroke="#EDA18A" stroke-width="0.205053" stroke-miterlimit="10" stroke-linecap="round" stroke-linejoin="round"/>
<path d="M47.8463 49.646C49.4318 49.646 50.7171 48.682 50.7171 47.4929C50.7171 46.3038 49.4318 45.3398 47.8463 45.3398C46.2609 45.3398 44.9756 46.3038 44.9756 47.4929C44.9756 48.682 46.2609 49.646 47.8463 49.646Z" fill="#F2A0A0"/>
<path d="M67.3269 49.646C68.9124 49.646 70.1977 48.682 70.1977 47.4929C70.1977 46.3038 68.9124 45.3398 67.3269 45.3398C65.7415 45.3398 64.4562 46.3038 64.4562 47.4929C64.4562 48.682 65.7415 49.646 67.3269 49.646Z" fill="#F2A0A0"/>
<path d="M52.2548 37.9028C52.2548 37.9028 50.8194 37.1338 48.4613 38.2104" stroke="#374656" stroke-width="0.205053" stroke-miterlimit="10" stroke-linecap="round" stroke-linejoin="round"/>
<path d="M62.4573 37.9028C62.4573 37.9028 63.8926 37.1338 66.2508 38.2104" stroke="#363C43" stroke-width="0.205053" stroke-miterlimit="10" stroke-linecap="round" stroke-linejoin="round"/>
<path d="M42.002 44.1056C42.002 44.1056 49.2814 35.5959 49.589 28.009C49.589 28.009 68.3513 43.7981 72.2473 44.4645C72.2473 44.4645 77.4762 33.084 71.4784 25.5996C69.7867 23.4978 63.7376 17.5 56.8684 17.5C50.7168 17.5 49.6915 21.2935 49.6915 21.2935C49.6915 21.2935 45.9493 18.0639 42.5147 22.9339C35.5428 32.879 42.002 44.1056 42.002 44.1056Z" fill="#6A5A54"/>
</g>
</svg>
