<svg width="80" height="80" viewBox="0 0 80 80" fill="none" xmlns="http://www.w3.org/2000/svg">
<circle cx="40" cy="40" r="40" fill="#CCD4DE"/>
<circle cx="40" cy="40" r="40" fill="#EDEDED"/>
<mask id="mask0_1833_69730" style="mask-type:alpha" maskUnits="userSpaceOnUse" x="0" y="0" width="80" height="80">
<circle cx="40" cy="40" r="40" fill="#C4C4C4"/>
</mask>
<g mask="url(#mask0_1833_69730)">
<path d="M5.98392 92.4255H76.675C70.7715 73.0498 56.9966 59.502 40.8754 59.502C24.6785 59.502 10.9035 73.0498 5 92.5012C5.30275 92.4255 5.68118 92.4255 5.98392 92.4255Z" fill="#3E83C4"/>
<path d="M40.95 70.2451C36.5602 70.2451 33.0029 66.6879 33.0029 62.2981V43.6035H48.8214V62.2981C48.8214 66.6879 45.2641 70.2451 40.95 70.2451Z" fill="#F7CBB5"/>
<mask id="mask1_1833_69730" style="mask-type:alpha" maskUnits="userSpaceOnUse" x="33" y="43" width="16" height="28">
<path d="M40.95 70.2451C36.5602 70.2451 33.0029 66.6879 33.0029 62.2981V43.6035H48.8214V62.2981C48.8214 66.6879 45.2641 70.2451 40.95 70.2451Z" fill="#F7CBB5"/>
</mask>
<g mask="url(#mask1_1833_69730)">
<path d="M30.8072 59.198C30.8072 59.198 37.6946 68.2047 51.6209 63.5878C60.0978 60.7874 54.8754 52.6133 54.8754 52.6133L29.8232 58.9709" fill="#EDA18A"/>
</g>
<path d="M19.6854 45.4254C24.2416 45.4254 27.9352 41.7318 27.9352 37.1756C27.9352 32.6194 24.2416 28.9258 19.6854 28.9258C15.1291 28.9258 11.4355 32.6194 11.4355 37.1756C11.4355 41.7318 15.1291 45.4254 19.6854 45.4254Z" fill="#EDA18A"/>
<path d="M62.1414 45.4254C66.6977 45.4254 70.3912 41.7318 70.3912 37.1756C70.3912 32.6194 66.6977 28.9258 62.1414 28.9258C57.5852 28.9258 53.8916 32.6194 53.8916 37.1756C53.8916 41.7318 57.5852 45.4254 62.1414 45.4254Z" fill="#EDA18A"/>
<path d="M63.5808 35.5845C63.5808 50.0406 53.5145 61.772 41.0262 61.772C28.538 61.772 18.4717 50.1163 18.4717 35.5845C18.4717 21.0527 25.1321 7.20213 41.4803 7.50487C58.0557 7.80762 63.5808 21.1284 63.5808 35.5845Z" fill="#F7CBB5"/>
<path d="M40.6472 44.5156C36.5602 44.5156 33.3057 48.1486 33.3057 52.6898C33.3057 57.2309 36.5602 60.8639 40.6472 60.8639C44.7343 60.8639 47.9888 57.2309 47.9888 52.6898C47.9888 48.2243 44.6586 44.5156 40.6472 44.5156ZM40.6472 53.9764C37.5441 53.9764 35.0465 52.387 35.0465 50.4192C35.0465 48.4513 37.5441 46.8619 40.6472 46.8619C43.7504 46.8619 46.248 48.4513 46.248 50.4192C46.248 52.387 43.6747 53.9764 40.6472 53.9764Z" fill="#E0E0E0"/>
<path d="M30.5054 38.8391C31.216 38.8391 31.7921 37.7208 31.7921 36.3414C31.7921 34.962 31.216 33.8438 30.5054 33.8438C29.7948 33.8438 29.2188 34.962 29.2188 36.3414C29.2188 37.7208 29.7948 38.8391 30.5054 38.8391Z" fill="#374656"/>
<path d="M50.7154 38.8371C51.426 38.8371 52.002 37.7189 52.002 36.3394C52.002 34.96 51.426 33.8418 50.7154 33.8418C50.0048 33.8418 49.4287 34.96 49.4287 36.3394C49.4287 37.7189 50.0048 38.8371 50.7154 38.8371Z" fill="#374656"/>
<path d="M39.8911 32.25C39.8911 32.25 36.7122 42.5434 37.8475 43.7543C38.9828 44.9653 42.5401 43.83 43.5997 43.3759" stroke="#EDA18A" stroke-width="0.302746" stroke-miterlimit="10" stroke-linecap="round" stroke-linejoin="round"/>
<path d="M36.333 49.0537C36.333 49.0537 37.9981 52.1569 41.2526 51.5514C44.5071 50.9459 45.1883 48.9023 45.1883 48.9023" stroke="#EDA18A" stroke-width="0.302746" stroke-miterlimit="10" stroke-linecap="round" stroke-linejoin="round"/>
<path d="M26.7238 46.2561C29.0646 46.2561 30.9622 44.8329 30.9622 43.0773C30.9622 41.3216 29.0646 39.8984 26.7238 39.8984C24.383 39.8984 22.4854 41.3216 22.4854 43.0773C22.4854 44.8329 24.383 46.2561 26.7238 46.2561Z" fill="#F2A0A0"/>
<path d="M55.4836 46.2561C57.8244 46.2561 59.722 44.8329 59.722 43.0773C59.722 41.3216 57.8244 39.8984 55.4836 39.8984C53.1427 39.8984 51.2451 41.3216 51.2451 43.0773C51.2451 44.8329 53.1427 46.2561 55.4836 46.2561Z" fill="#F2A0A0"/>
<path d="M33.2326 28.3186C33.2326 28.3186 31.1134 27.1833 27.6318 28.7727" stroke="#E0E0E0" stroke-width="0.908237" stroke-miterlimit="10" stroke-linecap="round" stroke-linejoin="round"/>
<path d="M48.291 28.3186C48.291 28.3186 50.4102 27.1833 53.8918 28.7727" stroke="#E0E0E0" stroke-width="0.908237" stroke-miterlimit="10" stroke-linecap="round" stroke-linejoin="round"/>
</g>
</svg>
