<svg width="80" height="80" viewBox="0 0 80 80" fill="none" xmlns="http://www.w3.org/2000/svg">
<circle cx="40" cy="40" r="40" fill="#CCD4DE"/>
<circle cx="40" cy="40" r="40" fill="#EDEDED"/>
<mask id="mask0_1833_69693" style="mask-type:alpha" maskUnits="userSpaceOnUse" x="0" y="0" width="80" height="80">
<circle cx="40" cy="40" r="40" fill="#C4C4C4"/>
</mask>
<g mask="url(#mask0_1833_69693)">
<path d="M7.28829 92.4279H75.334C69.6514 73.7772 56.392 60.7363 40.874 60.7363C25.2833 60.7363 12.0238 73.7772 6.34119 92.5007C6.6326 92.4279 6.99687 92.4279 7.28829 92.4279Z" fill="#B14C5E"/>
<path d="M40.9469 71.0782C36.7213 71.0782 33.2972 67.6541 33.2972 63.4286V45.4336H48.5237V63.4286C48.5237 67.6541 45.0995 71.0782 40.9469 71.0782Z" fill="#F7CBB5"/>
<mask id="mask1_1833_69693" style="mask-type:alpha" maskUnits="userSpaceOnUse" x="33" y="45" width="16" height="27">
<path d="M40.9469 71.0782C36.7213 71.0782 33.2972 67.6541 33.2972 63.4286V45.4336H48.5237V63.4286C48.5237 67.6541 45.0995 71.0782 40.9469 71.0782Z" fill="#F7CBB5"/>
</mask>
<g mask="url(#mask1_1833_69693)">
<path d="M31.1837 60.4438C31.1837 60.4438 37.8135 69.1134 51.2186 64.6693C59.3783 61.9737 54.3513 54.1055 54.3513 54.1055L30.2366 60.2252" fill="#EDA18A"/>
</g>
<path d="M20.477 47.1869C24.8627 47.1869 28.4181 43.6315 28.4181 39.2458C28.4181 34.86 24.8627 31.3047 20.477 31.3047C16.0912 31.3047 12.5359 34.86 12.5359 39.2458C12.5359 43.6315 16.0912 47.1869 20.477 47.1869Z" fill="#EDA18A"/>
<path d="M61.3434 47.1869C65.7291 47.1869 69.2845 43.6315 69.2845 39.2458C69.2845 34.86 65.7291 31.3047 61.3434 31.3047C56.9576 31.3047 53.4023 34.86 53.4023 39.2458C53.4023 43.6315 56.9576 47.1869 61.3434 47.1869Z" fill="#EDA18A"/>
<path d="M62.7308 37.7152C62.7308 51.6303 57.1476 62.3028 41.0202 62.9227C24.8929 63.5426 19.3097 51.7032 19.3097 37.7152C19.3097 23.7272 25.7209 10.3949 41.4573 10.6863C57.4124 10.9777 62.7308 23.8001 62.7308 37.7152Z" fill="#F7CBB5"/>
<path d="M30.8919 40.7049C31.5759 40.7049 32.1304 39.6285 32.1304 38.3007C32.1304 36.9729 31.5759 35.8965 30.8919 35.8965C30.2079 35.8965 29.6534 36.9729 29.6534 38.3007C29.6534 39.6285 30.2079 40.7049 30.8919 40.7049Z" fill="#374656"/>
<path d="M50.3465 40.7029C51.0305 40.7029 51.585 39.6265 51.585 38.2987C51.585 36.9709 51.0305 35.8945 50.3465 35.8945C49.6625 35.8945 49.108 36.9709 49.108 38.2987C49.108 39.6265 49.6625 40.7029 50.3465 40.7029Z" fill="#374656"/>
<path d="M57.0587 37.6797L53.2083 38.161" stroke="#EDA18A" stroke-width="0.302746" stroke-miterlimit="10" stroke-linecap="round" stroke-linejoin="round"/>
<path d="M56.5774 39.4168L53.2084 38.9355" stroke="#EDA18A" stroke-width="0.302746" stroke-miterlimit="10" stroke-linecap="round" stroke-linejoin="round"/>
<path d="M24.1655 37.8203L28.0158 38.3016" stroke="#EDA18A" stroke-width="0.302746" stroke-miterlimit="10" stroke-linecap="round" stroke-linejoin="round"/>
<path d="M24.6468 39.5575L28.0158 39.0762" stroke="#EDA18A" stroke-width="0.302746" stroke-miterlimit="10" stroke-linecap="round" stroke-linejoin="round"/>
<path d="M39.9257 34.5039C39.9257 34.5039 36.8658 44.4121 37.9586 45.5777C39.0514 46.7434 42.4756 45.6506 43.4955 45.2135" stroke="#EDA18A" stroke-width="0.302746" stroke-miterlimit="10" stroke-linecap="round" stroke-linejoin="round"/>
<path d="M36.5007 50.6789C36.5007 50.6789 38.1035 53.6659 41.2363 53.0831C44.369 52.5003 45.0247 50.5332 45.0247 50.5332" stroke="#EDA18A" stroke-width="0.302746" stroke-miterlimit="10" stroke-linecap="round" stroke-linejoin="round"/>
<path d="M27.2511 47.9869C29.5043 47.9869 31.3309 46.617 31.3309 44.9271C31.3309 43.2371 29.5043 41.8672 27.2511 41.8672C24.9979 41.8672 23.1713 43.2371 23.1713 44.9271C23.1713 46.617 24.9979 47.9869 27.2511 47.9869Z" fill="#F2A0A0"/>
<path d="M54.9365 47.9869C57.1897 47.9869 59.0164 46.617 59.0164 44.9271C59.0164 43.2371 57.1897 41.8672 54.9365 41.8672C52.6833 41.8672 50.8567 43.2371 50.8567 44.9271C50.8567 46.617 52.6833 47.9869 54.9365 47.9869Z" fill="#F2A0A0"/>
<path d="M33.5183 30.7199C33.5183 30.7199 31.4784 29.6271 28.1271 31.1571" stroke="#E0E0E0" stroke-width="0.908237" stroke-miterlimit="10" stroke-linecap="round" stroke-linejoin="round"/>
<path d="M48.0122 30.7199C48.0122 30.7199 50.0521 29.6271 53.4034 31.1571" stroke="#E0E0E0" stroke-width="0.908237" stroke-miterlimit="10" stroke-linecap="round" stroke-linejoin="round"/>
<path d="M39.3813 19.462C47.4203 17.6428 51.2531 14.3274 53.3387 12.2418C51.8949 10.7979 48.5087 6.51317 37.7279 7.28323C26.947 8.0533 14.0079 26.139 10.8431 33.0612C7.67832 39.9835 10.3248 49.8053 22.6808 51.2771C20.4661 45.6735 20.663 41.5576 22.6808 34.8694C24.6985 28.1813 31.3423 21.2813 39.3813 19.462Z" fill="#DFDFDF"/>
<path d="M56.0819 19.4568C53.6105 16.9422 50.6712 14.5856 48.5856 14.4252L52.7128 12.5C52.7128 11.2924 56.0404 12.3163 58.1461 14.4249C60.2519 16.5335 60.7311 18.5456 62.1887 21.2971C65.8059 28.1253 71.08 30.3557 69.4612 39.6988C68.9858 42.4426 68.9562 43.7483 67.3343 45.5691C65.6441 47.4666 61.4641 48.3766 61.4641 48.3766C61.4641 48.3766 63.8044 37.8367 62.1887 31.401C60.913 26.3199 59.754 23.1931 56.0819 19.4568Z" fill="#DFDFDF"/>
</g>
</svg>
