<svg width="80" height="80" viewBox="0 0 80 80" fill="none" xmlns="http://www.w3.org/2000/svg">
<circle cx="40" cy="40" r="40" fill="#CCD4DE"/>
<circle cx="40" cy="40" r="40" fill="#EDEDED"/>
<mask id="mask0_1833_75445" style="mask-type:alpha" maskUnits="userSpaceOnUse" x="0" y="0" width="80" height="80">
<circle cx="40" cy="40" r="40" fill="#C4C4C4"/>
</mask>
<g mask="url(#mask0_1833_75445)">
<path d="M7.28829 92.4279H75.334C69.6514 73.7772 56.392 60.7363 40.874 60.7363C25.2833 60.7363 12.0238 73.7772 6.34119 92.5007C6.6326 92.4279 6.99687 92.4279 7.28829 92.4279Z" fill="#F4BB00"/>
<path d="M40.9469 71.0782C36.7213 71.0782 33.2972 67.6541 33.2972 63.4286V45.4336H48.5237V63.4286C48.5237 67.6541 45.0995 71.0782 40.9469 71.0782Z" fill="#F7CBB5"/>
<mask id="mask1_1833_75445" style="mask-type:alpha" maskUnits="userSpaceOnUse" x="33" y="45" width="16" height="27">
<path d="M40.9469 71.0782C36.7213 71.0782 33.2972 67.6541 33.2972 63.4286V45.4336H48.5237V63.4286C48.5237 67.6541 45.0995 71.0782 40.9469 71.0782Z" fill="#F7CBB5"/>
</mask>
<g mask="url(#mask1_1833_75445)">
<path d="M31.1837 60.4438C31.1837 60.4438 37.8135 69.1134 51.2186 64.6693C59.3783 61.9737 54.3513 54.1055 54.3513 54.1055L30.2366 60.2252" fill="#EDA18A"/>
</g>
<path d="M20.477 47.1869C24.8627 47.1869 28.4181 43.6315 28.4181 39.2458C28.4181 34.86 24.8627 31.3047 20.477 31.3047C16.0912 31.3047 12.5359 34.86 12.5359 39.2458C12.5359 43.6315 16.0912 47.1869 20.477 47.1869Z" fill="#EDA18A"/>
<path d="M61.3434 47.1869C65.7291 47.1869 69.2845 43.6315 69.2845 39.2458C69.2845 34.86 65.7291 31.3047 61.3434 31.3047C56.9576 31.3047 53.4023 34.86 53.4023 39.2458C53.4023 43.6315 56.9576 47.1869 61.3434 47.1869Z" fill="#EDA18A"/>
<path d="M62.7308 37.7152C62.7308 51.6303 57.1476 62.3028 41.0202 62.9227C24.8929 63.5426 19.3097 51.7032 19.3097 37.7152C19.3097 23.7272 25.7209 10.3949 41.4573 10.6863C57.4124 10.9777 62.7308 23.8001 62.7308 37.7152Z" fill="#F7CBB5"/>
<path d="M30.8918 40.7049C31.5759 40.7049 32.1304 39.6285 32.1304 38.3007C32.1304 36.9729 31.5759 35.8965 30.8918 35.8965C30.2078 35.8965 29.6533 36.9729 29.6533 38.3007C29.6533 39.6285 30.2078 40.7049 30.8918 40.7049Z" fill="#374656"/>
<path d="M50.3464 40.7029C51.0304 40.7029 51.5849 39.6265 51.5849 38.2987C51.5849 36.9709 51.0304 35.8945 50.3464 35.8945C49.6624 35.8945 49.1079 36.9709 49.1079 38.2987C49.1079 39.6265 49.6624 40.7029 50.3464 40.7029Z" fill="#374656"/>
<path d="M39.9257 34.5039C39.9257 34.5039 36.8658 44.4121 37.9586 45.5777C39.0514 46.7434 42.4756 45.6506 43.4955 45.2135" stroke="#EDA18A" stroke-width="0.302746" stroke-miterlimit="10" stroke-linecap="round" stroke-linejoin="round"/>
<path d="M36.5007 50.6789C36.5007 50.6789 38.1035 53.6659 41.2363 53.0831C44.369 52.5003 45.0247 50.5332 45.0247 50.5332" stroke="#EDA18A" stroke-width="0.302746" stroke-miterlimit="10" stroke-linecap="round" stroke-linejoin="round"/>
<path d="M27.2511 47.9869C29.5043 47.9869 31.3309 46.617 31.3309 44.9271C31.3309 43.2371 29.5043 41.8672 27.2511 41.8672C24.9979 41.8672 23.1713 43.2371 23.1713 44.9271C23.1713 46.617 24.9979 47.9869 27.2511 47.9869Z" fill="#F2A0A0"/>
<path d="M54.9365 47.9869C57.1897 47.9869 59.0164 46.617 59.0164 44.9271C59.0164 43.2371 57.1897 41.8672 54.9365 41.8672C52.6833 41.8672 50.8567 43.2371 50.8567 44.9271C50.8567 46.617 52.6833 47.9869 54.9365 47.9869Z" fill="#F2A0A0"/>
<path d="M33.5183 30.7199C33.5183 30.7199 31.4784 29.6271 28.1271 31.1571L33.5183 30.7199Z" fill="#785A5A"/>
<path d="M33.5183 30.7199C33.5183 30.7199 31.4784 29.6271 28.1271 31.1571" stroke="#785A5A" stroke-width="0.908237" stroke-miterlimit="10" stroke-linecap="round" stroke-linejoin="round"/>
<path d="M48.0122 30.7199C48.0122 30.7199 50.0521 29.6271 53.4034 31.1571L48.0122 30.7199Z" fill="#785A5A"/>
<path d="M48.0122 30.7199C48.0122 30.7199 50.0521 29.6271 53.4034 31.1571" stroke="#785A5A" stroke-width="0.908237" stroke-miterlimit="10" stroke-linecap="round" stroke-linejoin="round"/>
<path d="M43.0008 19.462C34.9618 17.6428 31.1289 14.3274 29.0434 12.2418C30.4872 10.7979 33.8733 6.51317 44.6542 7.28323C55.4351 8.0533 68.3742 26.139 71.539 33.0612C74.7038 39.9835 72.0573 49.8053 59.7013 51.2771C61.916 45.6735 61.7191 41.5576 59.7013 34.8694C57.6836 28.1813 51.0398 21.2813 43.0008 19.462Z" fill="#785A5A"/>
<path d="M26.3 19.8493C28.7714 17.2026 31.7107 14.7222 33.7963 14.5534L29.6691 12.5271C29.6691 11.256 26.3415 12.3337 24.2358 14.5531C22.13 16.7724 21.6508 18.8903 20.1932 21.7862C16.576 28.9731 10.7466 35.0326 12.3654 44.8665C12.8408 47.7544 12.9207 49.1501 17.1656 53.4184C21.4105 57.6867 25.2753 56.5485 25.2753 56.5485C25.2753 56.5485 17.0743 45.497 20.1932 32.4209C21.4689 27.0728 22.6279 23.7819 26.3 19.8493Z" fill="#785A5A"/>
</g>
</svg>
