<svg width="16" height="18" viewBox="0 0 16 18" fill="none" xmlns="http://www.w3.org/2000/svg">
<path d="M13.9211 16.1591H5.23684V5.02273H13.9211V16.1591ZM13.9211 3.43182H5.23684C4.81808 3.43182 4.41647 3.59943 4.12036 3.89778C3.82425 4.19614 3.65789 4.60079 3.65789 5.02273V16.1591C3.65789 16.581 3.82425 16.9857 4.12036 17.284C4.41647 17.5824 4.81808 17.75 5.23684 17.75H13.9211C14.3398 17.75 14.7414 17.5824 15.0375 17.284C15.3336 16.9857 15.5 16.581 15.5 16.1591V5.02273C15.5 4.60079 15.3336 4.19614 15.0375 3.89778C14.7414 3.59943 14.3398 3.43182 13.9211 3.43182ZM11.5526 0.25H2.07895C1.66018 0.25 1.25857 0.417613 0.962463 0.715967C0.666353 1.01432 0.5 1.41897 0.5 1.84091V12.9773H2.07895V1.84091H11.5526V0.25Z" fill="#374656"/>
</svg>
