<svg width="23" height="21" viewBox="0 0 23 21" fill="none" xmlns="http://www.w3.org/2000/svg">
<path d="M21.5279 10.3845C21.4145 10.342 21.2869 10.3349 21.1735 10.3704C17.9559 11.2917 14.6178 11.7524 11.2443 11.7524C7.87084 11.7524 4.52564 11.2846 1.31514 10.3704C1.19469 10.3349 1.07419 10.342 0.960792 10.3845C0.613542 10.5263 0.0607421 11.0507 0.790692 13.0564V13.0635C1.86794 15.6291 4.72409 20.1365 11.2372 20.1365C17.7362 20.1365 20.5923 15.622 21.698 13.0635C22.4208 11.0507 21.8751 10.5263 21.5279 10.3845Z" fill="#374656"/>
<path d="M7.21085 0.61827C7.04785 0.0300201 6.31075 -0.161331 5.21225 0.143419C4.2838 0.405669 2.38445 1.48292 1.48435 3.68707C1.32135 4.09102 1.76785 4.16187 1.9592 3.87842C2.6183 2.90037 4.66655 1.31282 6.53045 1.00097C7.2888 0.87342 7.21085 0.61827 7.21085 0.61827Z" fill="#374656"/>
<path d="M7.11264 5.35246C6.05664 4.70046 4.69594 4.77131 3.70369 5.51551C3.20049 5.89821 2.70439 6.47936 2.41384 7.38651C2.36424 7.53536 2.32879 7.69836 2.32169 7.86136C2.30044 8.18736 2.52724 8.47796 2.89574 8.13776C5.70939 5.48006 7.67964 8.21571 7.67964 8.21571C8.06234 8.49211 8.45214 7.91806 8.37419 7.38651C8.35294 7.23061 8.33164 7.06761 8.29624 6.92586C8.06944 6.14626 7.60874 5.65721 7.11264 5.35246Z" fill="#374656"/>
<path opacity="0.3" d="M21.3222 10.3418C21.3009 10.3418 21.2796 10.3418 21.2513 10.3489C18.0053 11.2844 14.6389 11.7592 11.23 11.7592C7.82104 11.7592 4.45459 11.2844 1.20869 10.3489C1.18739 10.3418 1.16614 10.3418 1.13779 10.3418C0.918093 10.3631 -0.130807 10.5828 0.769243 13.0633V13.0704C1.20869 14.1051 1.93864 15.4588 3.07969 16.699C2.00954 15.4304 3.32774 14.7288 5.67359 15.0123C8.01949 15.2958 11.23 15.3028 11.23 15.3028C11.23 15.3028 14.4334 15.2958 16.7863 15.0123C19.1322 14.7288 20.4504 15.4304 19.3803 16.699C20.5213 15.4588 21.2513 14.1051 21.6907 13.0704V13.0633C22.5908 10.5757 21.5419 10.356 21.3222 10.3418Z" fill="black"/>
<path d="M19.5148 13.8287C20.4078 13.6373 21.0811 12.8931 21.1661 11.9789L21.2511 11.0859C18.0052 12.0001 14.6388 12.4679 11.2369 12.4679C7.83506 12.4679 4.46861 12.0001 1.22266 11.0859L1.30771 11.9789C1.39276 12.8861 2.06606 13.6302 2.95906 13.8287C5.66636 14.4169 8.44456 14.7075 11.2369 14.7075C14.0293 14.7075 16.8075 14.4098 19.5148 13.8287Z" fill="white"/>
<path opacity="0.3" d="M8.28871 6.91876C8.18946 6.59981 8.05481 6.32341 7.90596 6.09661C7.67921 5.77061 7.40281 5.52966 7.11221 5.35246C6.05621 4.70046 4.69546 4.77131 3.70326 5.51546C3.20006 5.89821 2.70396 6.47936 2.41341 7.38651C2.38506 7.47156 2.36376 7.56371 2.34961 7.65581V7.66291C3.58986 5.72811 5.37586 5.59346 5.37586 5.59346C5.37586 5.59346 7.14766 5.44461 8.34541 7.17391C8.33121 7.08886 8.30996 7.00381 8.28871 6.91876Z" fill="black"/>
<path d="M15.264 0.61827C15.427 0.0300201 16.1641 -0.161331 17.2626 0.143419C18.191 0.405669 20.0904 1.48292 20.9904 3.68707C21.1535 4.09102 20.707 4.16187 20.5156 3.87842C19.8565 2.90037 17.8083 1.31282 15.9444 1.00097C15.186 0.87342 15.264 0.61827 15.264 0.61827Z" fill="#374656"/>
<path d="M15.3614 5.35246C16.4174 4.70046 17.7781 4.77131 18.7703 5.51551C19.2735 5.89821 19.7696 6.47936 20.0602 7.38651C20.1098 7.53536 20.1452 7.69836 20.1523 7.86136C20.1736 8.18736 19.9468 8.47796 19.5783 8.13776C16.7647 5.48006 14.7944 8.21571 14.7944 8.21571C14.4117 8.49211 14.0219 7.91806 14.0999 7.38651C14.1211 7.23061 14.1424 7.06761 14.1778 6.92586C14.4046 6.14626 14.8653 5.65721 15.3614 5.35246Z" fill="#374656"/>
<path opacity="0.3" d="M14.1856 6.91876C14.2848 6.59981 14.4195 6.32341 14.5683 6.09661C14.7951 5.77061 15.0715 5.52966 15.3621 5.35246C16.4181 4.70046 17.7788 4.77131 18.771 5.51546C19.2742 5.89821 19.7703 6.47936 20.0609 7.38651C20.0892 7.47156 20.1105 7.56371 20.1247 7.65581V7.66291C18.8844 5.72811 17.0984 5.59346 17.0984 5.59346C17.0984 5.59346 15.3266 5.44461 14.1289 7.17391C14.1431 7.08886 14.1643 7.00381 14.1856 6.91876Z" fill="black"/>
<path d="M19.9189 14.9343C20.0252 14.7783 19.8551 14.5799 19.685 14.6579C18.5936 15.1327 15.9997 15.9548 11.237 15.9548C6.31853 15.9548 3.84508 15.1611 2.79618 14.6791C2.62608 14.6012 2.45598 14.7996 2.56228 14.9555C4.05768 17.1596 6.70833 19.4701 11.237 19.4701C15.7658 19.463 18.4164 17.1455 19.9189 14.9343Z" fill="white"/>
</svg>
