<svg width="32" height="32" viewBox="0 0 32 32" fill="none" xmlns="http://www.w3.org/2000/svg">
<path d="M16 32C24.8366 32 32 24.8366 32 16C32 7.16343 24.8366 0 16 0C7.16343 0 0 7.16343 0 16C0 24.8366 7.16343 32 16 32Z" fill="#DBDBDB"/>
<path d="M26.5279 16.3845C26.4145 16.342 26.2869 16.3349 26.1735 16.3704C22.9559 17.2917 19.6178 17.7524 16.2443 17.7524C12.8708 17.7524 9.52564 17.2846 6.31514 16.3704C6.19469 16.3349 6.07419 16.342 5.96079 16.3845C5.61354 16.5263 5.06074 17.0507 5.79069 19.0564V19.0635C6.86794 21.6291 9.72409 26.1365 16.2372 26.1365C22.7362 26.1365 25.5923 21.622 26.698 19.0635C27.4208 17.0507 26.8751 16.5263 26.5279 16.3845Z" fill="#374656"/>
<path d="M12.2108 6.61827C12.0478 6.03002 11.3107 5.83867 10.2122 6.14342C9.2838 6.40567 7.38445 7.48292 6.48435 9.68707C6.32135 10.091 6.76785 10.1619 6.9592 9.87842C7.6183 8.90037 9.66655 7.31282 11.5304 7.00097C12.2888 6.87342 12.2108 6.61827 12.2108 6.61827Z" fill="#374656"/>
<path d="M12.1126 11.3525C11.0566 10.7005 9.69594 10.7713 8.70369 11.5155C8.20049 11.8982 7.70439 12.4794 7.41384 13.3865C7.36424 13.5354 7.32879 13.6984 7.32169 13.8614C7.30044 14.1874 7.52724 14.478 7.89574 14.1378C10.7094 11.4801 12.6796 14.2157 12.6796 14.2157C13.0623 14.4921 13.4521 13.9181 13.3742 13.3865C13.3529 13.2306 13.3316 13.0676 13.2962 12.9259C13.0694 12.1463 12.6087 11.6572 12.1126 11.3525Z" fill="#374656"/>
<path d="M26.3222 16.3418C26.3009 16.3418 26.2796 16.3418 26.2513 16.3489C23.0053 17.2844 19.6389 17.7592 16.23 17.7592C12.821 17.7592 9.45459 17.2844 6.20869 16.3489C6.18739 16.3418 6.16614 16.3418 6.13779 16.3418C5.91809 16.3631 4.86919 16.5828 5.76924 19.0633V19.0704C6.20869 20.1051 6.93864 21.4588 8.07969 22.699C7.00954 21.4304 8.32774 20.7288 10.6736 21.0123C13.0195 21.2958 16.23 21.3028 16.23 21.3028C16.23 21.3028 19.4334 21.2958 21.7863 21.0123C24.1322 20.7288 25.4504 21.4304 24.3803 22.699C25.5213 21.4588 26.2513 20.1051 26.6907 19.0704V19.0633C27.5908 16.5757 26.5419 16.356 26.3222 16.3418Z" fill="black"/>
<path d="M24.5148 19.8287C25.4078 19.6373 26.0811 18.8931 26.1661 17.9789L26.2511 17.0859C23.0052 18.0001 19.6388 18.4679 16.2369 18.4679C12.8351 18.4679 9.46861 18.0001 6.22266 17.0859L6.30771 17.9789C6.39276 18.8861 7.06606 19.6302 7.95906 19.8287C10.6664 20.4169 13.4446 20.7075 16.2369 20.7075C19.0293 20.7075 21.8075 20.4098 24.5148 19.8287Z" fill="white"/>
<path d="M13.2887 12.9188C13.1895 12.5998 13.0548 12.3234 12.906 12.0966C12.6792 11.7706 12.4032 11.5297 12.1126 11.3525C11.0566 10.7005 9.69594 10.7713 8.70369 11.5155C8.20049 11.8982 7.70439 12.4794 7.41384 13.3865C7.38549 13.4716 7.36376 13.5637 7.34961 13.6558V13.6629C8.58986 11.7281 10.3759 11.5935 10.3759 11.5935C10.3759 11.5935 12.1477 11.4446 13.3454 13.1739C13.3312 13.0889 13.31 13.0038 13.2887 12.9188Z" fill="black"/>
<path d="M20.264 6.61827C20.427 6.03002 21.1641 5.83867 22.2626 6.14342C23.191 6.40567 25.0904 7.48292 25.9904 9.68707C26.1535 10.091 25.707 10.1619 25.5156 9.87842C24.8565 8.90037 22.8083 7.31282 20.9444 7.00097C20.186 6.87342 20.264 6.61827 20.264 6.61827Z" fill="#374656"/>
<path d="M20.3614 11.3525C21.4174 10.7005 22.7781 10.7713 23.7703 11.5155C24.2735 11.8982 24.7696 12.4794 25.0602 13.3865C25.1098 13.5354 25.1452 13.6984 25.1523 13.8614C25.1736 14.1874 24.9468 14.478 24.5783 14.1378C21.7647 11.4801 19.7944 14.2157 19.7944 14.2157C19.4117 14.4921 19.0219 13.9181 19.0999 13.3865C19.1211 13.2306 19.1424 13.0676 19.1778 12.9259C19.4046 12.1463 19.8653 11.6572 20.3614 11.3525Z" fill="#374656"/>
<path d="M19.1856 12.9188C19.2848 12.5998 19.4195 12.3234 19.5683 12.0966C19.7951 11.7706 20.0708 11.5297 20.3614 11.3525C21.4174 10.7005 22.7781 10.7713 23.7703 11.5155C24.2735 11.8982 24.7696 12.4794 25.0602 13.3865C25.0886 13.4716 25.1105 13.5637 25.1247 13.6558V13.6629C23.8844 11.7281 22.0984 11.5935 22.0984 11.5935C22.0984 11.5935 20.3266 11.4446 19.1289 13.1739C19.1431 13.0889 19.1643 13.0038 19.1856 12.9188Z" fill="black"/>
<path d="M24.9189 20.9343C25.0252 20.7783 24.8551 20.5799 24.685 20.6579C23.5936 21.1327 20.9997 21.9548 16.237 21.9548C11.3185 21.9548 8.84508 21.1611 7.79618 20.6791C7.62608 20.6012 7.45598 20.7996 7.56228 20.9555C9.05768 23.1596 11.7083 25.4701 16.237 25.4701C20.7658 25.463 23.4164 23.1455 24.9189 20.9343Z" fill="white"/>
</svg>
