<svg aria-hidden="true" style="position: absolute; width: 0; height: 0; overflow: hidden;" version="1.1" xmlns="http://www.w3.org/2000/svg" xmlns:xlink="http://www.w3.org/1999/xlink">
<defs>
<symbol id="icon-happy-active" viewBox="0 0 32 32">
<path fill="#ffdf30" style="fill: var(--color1, #ffdf30)" d="M16 32c8.837 0 16-7.163 16-16s-7.163-16-16-16c-8.837 0-16 7.163-16 16s7.163 16 16 16z"></path>
<path fill="#3c2200" style="fill: var(--color2, #3c2200)" d="M26.528 16.384c-0.113-0.043-0.241-0.050-0.354-0.014-3.218 0.921-6.556 1.382-9.929 1.382s-6.719-0.468-9.929-1.382c-0.12-0.035-0.241-0.028-0.354 0.014-0.347 0.142-0.9 0.666-0.17 2.672v0.007c1.077 2.566 3.933 7.073 10.447 7.073 6.499 0 9.355-4.514 10.461-7.073 0.723-2.013 0.177-2.537-0.17-2.679z"></path>
<path fill="#3c2200" style="fill: var(--color2, #3c2200)" d="M12.211 6.618c-0.163-0.588-0.9-0.78-1.999-0.475-0.928 0.262-2.828 1.34-3.728 3.544-0.163 0.404 0.284 0.475 0.475 0.191 0.659-0.978 2.707-2.566 4.571-2.877 0.758-0.128 0.68-0.383 0.68-0.383z"></path>
<path fill="#7a4400" style="fill: var(--color3, #7a4400)" d="M12.113 11.352c-1.056-0.652-2.417-0.581-3.409 0.163-0.503 0.383-0.999 0.964-1.29 1.871-0.050 0.149-0.085 0.312-0.092 0.475-0.021 0.326 0.206 0.617 0.574 0.276 2.814-2.658 4.784 0.078 4.784 0.078 0.383 0.276 0.773-0.298 0.695-0.829-0.021-0.156-0.043-0.319-0.078-0.461-0.227-0.78-0.688-1.269-1.184-1.573z"></path>
<path fill="#3c2200" style="fill: var(--color2, #3c2200)" d="M26.322 16.342c-0.021 0-0.043 0-0.071 0.007-3.246 0.936-6.612 1.41-10.021 1.41s-6.775-0.475-10.021-1.41c-0.021-0.007-0.043-0.007-0.071-0.007-0.22 0.021-1.269 0.241-0.369 2.721v0.007c0.439 1.035 1.169 2.388 2.31 3.629-1.070-1.269 0.248-1.97 2.594-1.687s5.556 0.291 5.556 0.291 3.203-0.007 5.556-0.291c2.346-0.284 3.664 0.418 2.594 1.687 1.141-1.24 1.871-2.594 2.31-3.629v-0.007c0.9-2.488-0.149-2.707-0.369-2.721z"></path>
<path fill="#fff" style="fill: var(--color4, #fff)" d="M24.515 19.829c0.893-0.191 1.566-0.936 1.651-1.85l0.085-0.893c-3.246 0.914-6.612 1.382-10.014 1.382s-6.768-0.468-10.014-1.382l0.085 0.893c0.085 0.907 0.758 1.651 1.651 1.85 2.707 0.588 5.486 0.879 8.278 0.879s5.571-0.298 8.278-0.879z"></path>
<path fill="#3c2200" style="fill: var(--color2, #3c2200)" d="M13.289 12.919c-0.099-0.319-0.234-0.595-0.383-0.822-0.227-0.326-0.503-0.567-0.793-0.744-1.056-0.652-2.417-0.581-3.409 0.163-0.503 0.383-0.999 0.964-1.29 1.871-0.028 0.085-0.050 0.177-0.064 0.269v0.007c1.24-1.935 3.026-2.069 3.026-2.069s1.772-0.149 2.97 1.58c-0.014-0.085-0.035-0.17-0.057-0.255z"></path>
<path fill="#3c2200" style="fill: var(--color2, #3c2200)" d="M20.264 6.618c0.163-0.588 0.9-0.78 1.999-0.475 0.928 0.262 2.828 1.34 3.728 3.544 0.163 0.404-0.283 0.475-0.475 0.191-0.659-0.978-2.707-2.566-4.571-2.877-0.758-0.128-0.68-0.383-0.68-0.383z"></path>
<path fill="#7a4400" style="fill: var(--color3, #7a4400)" d="M20.361 11.352c1.056-0.652 2.417-0.581 3.409 0.163 0.503 0.383 0.999 0.964 1.29 1.871 0.050 0.149 0.085 0.312 0.092 0.475 0.021 0.326-0.206 0.617-0.574 0.276-2.814-2.658-4.784 0.078-4.784 0.078-0.383 0.276-0.773-0.298-0.695-0.829 0.021-0.156 0.043-0.319 0.078-0.461 0.227-0.78 0.688-1.269 1.184-1.573z"></path>
<path fill="#3c2200" style="fill: var(--color2, #3c2200)" d="M19.186 12.919c0.099-0.319 0.234-0.595 0.383-0.822 0.227-0.326 0.503-0.567 0.793-0.744 1.056-0.652 2.417-0.581 3.409 0.163 0.503 0.383 0.999 0.964 1.29 1.871 0.028 0.085 0.050 0.177 0.064 0.269v0.007c-1.24-1.935-3.026-2.069-3.026-2.069s-1.772-0.149-2.97 1.58c0.014-0.085 0.035-0.17 0.057-0.255z"></path>
<path fill="#fff" style="fill: var(--color4, #fff)" d="M24.919 20.934c0.106-0.156-0.064-0.354-0.234-0.276-1.091 0.475-3.685 1.297-8.448 1.297-4.918 0-7.392-0.794-8.441-1.276-0.17-0.078-0.34 0.12-0.234 0.276 1.495 2.204 4.146 4.515 8.675 4.515 4.529-0.007 7.179-2.325 8.682-4.536z"></path>
</symbol>
<symbol id="icon-happy-gray" viewBox="0 0 32 32">
<path fill="#dbdbdb" style="fill: var(--color5, #dbdbdb)" d="M16 32c8.837 0 16-7.163 16-16s-7.163-16-16-16c-8.837 0-16 7.163-16 16s7.163 16 16 16z"></path>
<path fill="#374656" style="fill: var(--color6, #374656)" d="M26.528 16.384c-0.113-0.043-0.241-0.050-0.354-0.014-3.218 0.921-6.556 1.382-9.929 1.382s-6.719-0.468-9.929-1.382c-0.12-0.035-0.241-0.028-0.354 0.014-0.347 0.142-0.9 0.666-0.17 2.672v0.007c1.077 2.566 3.933 7.073 10.447 7.073 6.499 0 9.355-4.514 10.461-7.073 0.723-2.013 0.177-2.537-0.17-2.679z"></path>
<path fill="#374656" style="fill: var(--color6, #374656)" d="M12.211 6.618c-0.163-0.588-0.9-0.78-1.999-0.475-0.928 0.262-2.828 1.34-3.728 3.544-0.163 0.404 0.284 0.475 0.475 0.191 0.659-0.978 2.707-2.566 4.571-2.877 0.758-0.128 0.68-0.383 0.68-0.383z"></path>
<path fill="#374656" style="fill: var(--color6, #374656)" d="M12.113 11.352c-1.056-0.652-2.417-0.581-3.409 0.163-0.503 0.383-0.999 0.964-1.29 1.871-0.050 0.149-0.085 0.312-0.092 0.475-0.021 0.326 0.206 0.617 0.574 0.276 2.814-2.658 4.784 0.078 4.784 0.078 0.383 0.276 0.773-0.298 0.695-0.829-0.021-0.156-0.043-0.319-0.078-0.461-0.227-0.78-0.688-1.269-1.184-1.573z"></path>
<path fill="#000" style="fill: var(--color7, #000)" d="M26.322 16.342c-0.021 0-0.043 0-0.071 0.007-3.246 0.936-6.612 1.41-10.021 1.41s-6.775-0.475-10.021-1.41c-0.021-0.007-0.043-0.007-0.071-0.007-0.22 0.021-1.269 0.241-0.369 2.721v0.007c0.439 1.035 1.169 2.388 2.31 3.629-1.070-1.269 0.248-1.97 2.594-1.687s5.556 0.291 5.556 0.291 3.203-0.007 5.556-0.291c2.346-0.284 3.664 0.418 2.594 1.687 1.141-1.24 1.871-2.594 2.31-3.629v-0.007c0.9-2.488-0.149-2.707-0.369-2.721z"></path>
<path fill="#fff" style="fill: var(--color4, #fff)" d="M24.515 19.829c0.893-0.191 1.566-0.936 1.651-1.85l0.085-0.893c-3.246 0.914-6.612 1.382-10.014 1.382s-6.768-0.468-10.014-1.382l0.085 0.893c0.085 0.907 0.758 1.651 1.651 1.85 2.707 0.588 5.486 0.879 8.278 0.879s5.571-0.298 8.278-0.879z"></path>
<path fill="#000" style="fill: var(--color7, #000)" d="M13.289 12.919c-0.099-0.319-0.234-0.595-0.383-0.822-0.227-0.326-0.503-0.567-0.793-0.744-1.056-0.652-2.417-0.581-3.409 0.163-0.503 0.383-0.999 0.964-1.29 1.871-0.028 0.085-0.050 0.177-0.064 0.269v0.007c1.24-1.935 3.026-2.069 3.026-2.069s1.772-0.149 2.97 1.58c-0.014-0.085-0.035-0.17-0.057-0.255z"></path>
<path fill="#374656" style="fill: var(--color6, #374656)" d="M20.264 6.618c0.163-0.588 0.9-0.78 1.999-0.475 0.928 0.262 2.828 1.34 3.728 3.544 0.163 0.404-0.283 0.475-0.475 0.191-0.659-0.978-2.707-2.566-4.571-2.877-0.758-0.128-0.68-0.383-0.68-0.383z"></path>
<path fill="#374656" style="fill: var(--color6, #374656)" d="M20.361 11.352c1.056-0.652 2.417-0.581 3.409 0.163 0.503 0.383 0.999 0.964 1.29 1.871 0.050 0.149 0.085 0.312 0.092 0.475 0.021 0.326-0.206 0.617-0.574 0.276-2.814-2.658-4.784 0.078-4.784 0.078-0.383 0.276-0.773-0.298-0.695-0.829 0.021-0.156 0.043-0.319 0.078-0.461 0.227-0.78 0.688-1.269 1.184-1.573z"></path>
<path fill="#000" style="fill: var(--color7, #000)" d="M19.186 12.919c0.099-0.319 0.234-0.595 0.383-0.822 0.227-0.326 0.503-0.567 0.793-0.744 1.056-0.652 2.417-0.581 3.409 0.163 0.503 0.383 0.999 0.964 1.29 1.871 0.028 0.085 0.050 0.177 0.064 0.269v0.007c-1.24-1.935-3.026-2.069-3.026-2.069s-1.772-0.149-2.97 1.58c0.014-0.085 0.035-0.17 0.057-0.255z"></path>
<path fill="#fff" style="fill: var(--color4, #fff)" d="M24.919 20.934c0.106-0.156-0.064-0.354-0.234-0.276-1.091 0.475-3.685 1.297-8.448 1.297-4.918 0-7.392-0.794-8.441-1.276-0.17-0.078-0.34 0.12-0.234 0.276 1.495 2.204 4.146 4.515 8.675 4.515 4.529-0.007 7.179-2.325 8.682-4.536z"></path>
</symbol>
<symbol id="icon-normal-active" viewBox="0 0 32 32">
<path fill="#ffdf30" style="fill: var(--color1, #ffdf30)" d="M16 32c8.837 0 16-7.163 16-16s-7.163-16-16-16c-8.837 0-16 7.163-16 16s7.163 16 16 16z"></path>
<path fill="#374656" style="fill: var(--color6, #374656)" d="M13.247 10.431c0.095-0.724-0.505-1.267-1.629-1.41-0.962-0.124-3.143 0.238-4.876 2.286-0.324 0.381 0.057 0.657 0.362 0.428 1.010-0.79 3.543-1.648 5.371-1.162 0.733 0.181 0.771-0.143 0.771-0.143z"></path>
<path fill="#374656" style="fill: var(--color6, #374656)" d="M11.029 17.745c0.81 0 1.467-0.994 1.467-2.219s-0.657-2.219-1.467-2.219c-0.81 0-1.467 0.993-1.467 2.219s0.657 2.219 1.467 2.219z"></path>
<path fill="#000" style="fill: var(--color7, #000)" opacity="0.3" d="M11.029 14.060c0.629 0 1.181 0.552 1.467 1.362-0.019-1.2-0.667-2.162-1.467-2.162s-1.448 0.962-1.467 2.162c0.286-0.809 0.829-1.362 1.467-1.362z"></path>
<path fill="#374656" style="fill: var(--color6, #374656)" d="M20.971 17.745c0.81 0 1.467-0.994 1.467-2.219s-0.657-2.219-1.467-2.219-1.467 0.993-1.467 2.219c0 1.226 0.657 2.219 1.467 2.219z"></path>
<path fill="#000" style="fill: var(--color7, #000)" opacity="0.3" d="M20.971 14.117c-0.629 0-1.181 0.552-1.467 1.362 0.019-1.2 0.667-2.162 1.467-2.162s1.448 0.962 1.467 2.162c-0.286-0.809-0.829-1.362-1.467-1.362z"></path>
<path fill="#374656" style="fill: var(--color6, #374656)" d="M18.752 10.431c-0.095-0.724 0.505-1.267 1.629-1.41 0.962-0.124 3.143 0.238 4.876 2.286 0.324 0.381-0.057 0.657-0.362 0.428-1.009-0.79-3.543-1.648-5.371-1.162-0.733 0.181-0.771-0.143-0.771-0.143z"></path>
<path fill="#374656" style="fill: var(--color6, #374656)" d="M22.42 23.746h-12.838c-0.39 0-0.714-0.324-0.714-0.714s0.324-0.714 0.714-0.714h12.838c0.39 0 0.714 0.324 0.714 0.714s-0.324 0.714-0.714 0.714z"></path>
<path fill="#000" style="fill: var(--color7, #000)" opacity="0.3" d="M9.515 22.698h12.981c0.276 0 0.524 0.162 0.638 0.39 0-0.019 0-0.038 0-0.057 0-0.39-0.324-0.714-0.714-0.714h-12.838c-0.39 0-0.714 0.324-0.714 0.714 0 0.019 0 0.038 0 0.057 0.124-0.238 0.362-0.39 0.648-0.39z"></path>
</symbol>
<symbol id="icon-sad-active" viewBox="0 0 32 32">
<path fill="#ffdf30" style="fill: var(--color1, #ffdf30)" d="M16 32c8.837 0 16-7.163 16-16s-7.163-16-16-16c-8.837 0-16 7.163-16 16s7.163 16 16 16z"></path>
<path fill="#374656" style="fill: var(--color6, #374656)" d="M15.946 19.050c0 0 3.161-0.014 4.245 2.502 0.071 0.156 0.113 0.326 0.128 0.503 0.028 0.347-0.213 0.709-0.822 0.475-0.964-0.376-2.615-0.574-3.551-0.574-0.928 0-2.587 0.191-3.551 0.574-0.602 0.234-0.843-0.128-0.822-0.475 0.014-0.177 0.057-0.347 0.127-0.503 1.084-2.509 4.245-2.502 4.245-2.502z"></path>
<path fill="#374656" style="fill: var(--color6, #374656)" d="M11.262 16.719c0.81 0 1.467-0.993 1.467-2.218s-0.657-2.218-1.467-2.218c-0.81 0-1.467 0.993-1.467 2.218s0.657 2.218 1.467 2.218z"></path>
<path fill="#000" style="fill: var(--color7, #000)" d="M10.681 13.707c0.858 0 1.573 0.879 1.779 2.069 0.17-0.361 0.27-0.801 0.27-1.276 0-1.226-0.659-2.218-1.467-2.218-0.702 0-1.29 0.744-1.432 1.743 0.255-0.206 0.546-0.319 0.85-0.319z"></path>
<path fill="#374656" style="fill: var(--color6, #374656)" d="M9.696 9.1c-1.311 0-2.438 1.51-0.971 1.743s4.139 1.495 5.266 2.367c0.085 0.099 0.418 0.071 0.397-0.191-0.007-0.999-3.097-3.919-4.692-3.919z"></path>
<path fill="#000" style="fill: var(--color7, #000)" d="M15.946 19.879c0 0 2.573-0.007 4.33 1.97-0.021-0.099-0.050-0.198-0.092-0.291-1.084-2.516-4.245-2.502-4.245-2.502s-3.161-0.014-4.245 2.502c-0.043 0.092-0.071 0.191-0.092 0.291 1.765-1.977 4.344-1.97 4.344-1.97z"></path>
<path fill="#374656" style="fill: var(--color6, #374656)" d="M21.213 16.719c0.81 0 1.467-0.993 1.467-2.218s-0.657-2.218-1.467-2.218c-0.81 0-1.467 0.993-1.467 2.218s0.657 2.218 1.467 2.218z"></path>
<path fill="#000" style="fill: var(--color7, #000)" d="M21.794 13.707c-0.858 0-1.573 0.879-1.779 2.069-0.17-0.361-0.269-0.801-0.269-1.276 0-1.226 0.659-2.218 1.467-2.218 0.702 0 1.29 0.744 1.432 1.743-0.255-0.206-0.546-0.319-0.851-0.319z"></path>
<path fill="#374656" style="fill: var(--color6, #374656)" d="M22.779 9.1c1.311 0 2.438 1.51 0.971 1.743s-4.139 1.495-5.266 2.367c-0.085 0.099-0.418 0.071-0.397-0.191 0.007-0.999 3.097-3.919 4.692-3.919z"></path>
</symbol>
<symbol id="icon-happy" viewBox="0 0 35 32">
<path fill="#374656" style="fill: var(--color6, #374656)" d="M32.804 15.824c-0.173-0.065-0.367-0.076-0.54-0.021-4.903 1.404-9.99 2.106-15.13 2.106s-10.238-0.713-15.13-2.106c-0.184-0.054-0.367-0.043-0.54 0.021-0.529 0.216-1.371 1.015-0.259 4.071v0.011c1.642 3.91 5.994 10.778 15.918 10.778 9.903 0 14.255-6.879 15.94-10.778 1.101-3.067 0.27-3.866-0.259-4.082z"></path>
<path fill="#374656" style="fill: var(--color6, #374656)" d="M10.988 0.942c-0.248-0.896-1.372-1.188-3.046-0.724-1.415 0.4-4.309 2.041-5.681 5.4-0.248 0.616 0.432 0.724 0.724 0.292 1.004-1.49 4.125-3.909 6.966-4.385 1.156-0.194 1.037-0.583 1.037-0.583z"></path>
<path fill="#374656" style="fill: var(--color6, #374656)" d="M10.838 8.156c-1.609-0.994-3.683-0.886-5.195 0.248-0.767 0.583-1.523 1.469-1.966 2.851-0.076 0.227-0.13 0.475-0.14 0.724-0.032 0.497 0.313 0.94 0.875 0.421 4.287-4.050 7.29 0.119 7.29 0.119 0.583 0.421 1.177-0.454 1.058-1.264-0.032-0.238-0.065-0.486-0.119-0.702-0.346-1.188-1.048-1.933-1.804-2.398z"></path>
<path fill="#000" style="fill: var(--color7, #000)" opacity="0.3" d="M32.491 15.759c-0.032 0-0.065 0-0.108 0.011-4.946 1.426-10.076 2.149-15.271 2.149s-10.324-0.724-15.271-2.149c-0.032-0.011-0.065-0.011-0.108-0.011-0.335 0.032-1.933 0.367-0.562 4.147v0.011c0.67 1.577 1.782 3.639 3.521 5.529-1.631-1.933 0.378-3.002 3.953-2.57s8.467 0.443 8.467 0.443 4.881-0.011 8.467-0.443c3.575-0.432 5.583 0.637 3.953 2.57 1.739-1.89 2.851-3.953 3.521-5.529v-0.011c1.372-3.791-0.227-4.125-0.562-4.147z"></path>
<path fill="#fff" style="fill: var(--color4, #fff)" d="M29.737 21.072c1.361-0.292 2.387-1.426 2.516-2.819l0.13-1.361c-4.946 1.393-10.076 2.106-15.26 2.106s-10.314-0.713-15.26-2.106l0.13 1.361c0.13 1.382 1.156 2.516 2.516 2.819 4.125 0.896 8.359 1.339 12.614 1.339s8.489-0.454 12.614-1.339z"></path>
<path fill="#000" style="fill: var(--color7, #000)" opacity="0.3" d="M12.63 10.543c-0.151-0.486-0.356-0.907-0.583-1.253-0.346-0.497-0.767-0.864-1.21-1.134-1.609-0.994-3.683-0.886-5.195 0.248-0.767 0.583-1.523 1.469-1.966 2.851-0.043 0.13-0.076 0.27-0.097 0.41v0.011c1.89-2.948 4.611-3.153 4.611-3.153s2.7-0.227 4.525 2.408c-0.022-0.13-0.054-0.259-0.086-0.389z"></path>
<path fill="#374656" style="fill: var(--color6, #374656)" d="M23.259 0.942c0.248-0.896 1.372-1.188 3.046-0.724 1.415 0.4 4.309 2.041 5.68 5.4 0.249 0.616-0.432 0.724-0.724 0.292-1.004-1.49-4.125-3.909-6.966-4.385-1.156-0.194-1.037-0.583-1.037-0.583z"></path>
<path fill="#374656" style="fill: var(--color6, #374656)" d="M23.408 8.156c1.609-0.994 3.683-0.886 5.195 0.248 0.767 0.583 1.523 1.469 1.966 2.851 0.076 0.227 0.13 0.475 0.14 0.724 0.032 0.497-0.313 0.94-0.875 0.421-4.287-4.050-7.29 0.119-7.29 0.119-0.583 0.421-1.177-0.454-1.058-1.264 0.032-0.238 0.065-0.486 0.119-0.702 0.346-1.188 1.048-1.933 1.804-2.398z"></path>
<path fill="#000" style="fill: var(--color7, #000)" opacity="0.3" d="M21.616 10.543c0.151-0.486 0.356-0.907 0.583-1.253 0.346-0.497 0.767-0.864 1.21-1.134 1.609-0.994 3.683-0.886 5.195 0.248 0.767 0.583 1.523 1.469 1.966 2.851 0.043 0.13 0.076 0.27 0.097 0.41v0.011c-1.89-2.948-4.611-3.153-4.611-3.153s-2.7-0.227-4.525 2.408c0.022-0.13 0.054-0.259 0.086-0.389z"></path>
<path fill="#fff" style="fill: var(--color4, #fff)" d="M30.353 22.757c0.162-0.238-0.097-0.54-0.356-0.421-1.663 0.724-5.616 1.976-12.873 1.976-7.495 0-11.264-1.209-12.862-1.944-0.259-0.119-0.518 0.184-0.356 0.421 2.279 3.359 6.318 6.879 13.219 6.879 6.901-0.011 10.94-3.542 13.23-6.912z"></path>
</symbol>
<symbol id="icon-normal" viewBox="0 0 43 32">
<path fill="#374656" style="fill: var(--color6, #374656)" d="M15.461 3.053c0.203-1.544-1.077-2.702-3.474-3.007-2.052-0.264-6.705 0.508-10.403 4.876-0.691 0.813 0.122 1.402 0.772 0.914 2.154-1.686 7.558-3.515 11.459-2.479 1.564 0.386 1.646-0.305 1.646-0.305z"></path>
<path fill="#374656" style="fill: var(--color6, #374656)" d="M10.729 18.657c1.728 0 3.129-2.119 3.129-4.734s-1.401-4.734-3.129-4.734c-1.728 0-3.129 2.119-3.129 4.734s1.401 4.734 3.129 4.734z"></path>
<path fill="#000" style="fill: var(--color7, #000)" opacity="0.3" d="M10.729 10.794c1.341 0 2.519 1.178 3.129 2.905-0.041-2.56-1.422-4.612-3.129-4.612s-3.088 2.052-3.129 4.612c0.61-1.727 1.768-2.905 3.129-2.905z"></path>
<path fill="#374656" style="fill: var(--color6, #374656)" d="M31.937 18.657c1.728 0 3.129-2.119 3.129-4.734s-1.401-4.734-3.129-4.734c-1.728 0-3.129 2.119-3.129 4.734s1.401 4.734 3.129 4.734z"></path>
<path fill="#000" style="fill: var(--color7, #000)" opacity="0.3" d="M31.937 10.917c-1.341 0-2.519 1.178-3.129 2.905 0.041-2.56 1.422-4.612 3.129-4.612s3.088 2.052 3.129 4.612c-0.609-1.727-1.768-2.905-3.129-2.905z"></path>
<path fill="#374656" style="fill: var(--color6, #374656)" d="M27.204 3.053c-0.203-1.544 1.077-2.702 3.474-3.007 2.052-0.264 6.705 0.508 10.403 4.876 0.691 0.813-0.122 1.402-0.772 0.914-2.154-1.686-7.558-3.515-11.459-2.479-1.565 0.386-1.646-0.305-1.646-0.305z"></path>
<path fill="#374656" style="fill: var(--color6, #374656)" d="M35.028 31.457h-27.388c-0.833 0-1.524-0.691-1.524-1.524s0.691-1.524 1.524-1.524h27.388c0.833 0 1.524 0.691 1.524 1.524s-0.691 1.524-1.524 1.524z"></path>
<path fill="#000" style="fill: var(--color7, #000)" opacity="0.3" d="M7.498 29.223h27.693c0.589 0 1.117 0.345 1.361 0.833 0-0.041 0-0.081 0-0.122 0-0.833-0.691-1.524-1.524-1.524h-27.388c-0.833 0-1.524 0.691-1.524 1.524 0 0.041 0 0.081 0 0.122 0.264-0.508 0.772-0.833 1.382-0.833z"></path>
</symbol>
<symbol id="icon-sad" viewBox="0 0 39 32">
<path fill="#374656" style="fill: var(--color6, #374656)" d="M18.163 22.972c0 0 7.225-0.032 9.703 5.718 0.162 0.357 0.259 0.745 0.292 1.15 0.065 0.794-0.486 1.62-1.879 1.085-2.203-0.859-5.978-1.312-8.116-1.312-2.122 0-5.913 0.438-8.116 1.312-1.377 0.534-1.928-0.292-1.879-1.085 0.032-0.405 0.13-0.794 0.292-1.15 2.479-5.734 9.703-5.718 9.703-5.718z"></path>
<path fill="#374656" style="fill: var(--color6, #374656)" d="M7.456 17.643c1.852 0 3.353-2.27 3.353-5.070s-1.501-5.070-3.353-5.070c-1.852 0-3.353 2.27-3.353 5.070s1.501 5.070 3.353 5.070z"></path>
<path fill="#000" style="fill: var(--color7, #000)" opacity="0.3" d="M6.127 10.758c1.96 0 3.596 2.009 4.066 4.73 0.389-0.826 0.616-1.831 0.616-2.916 0-2.803-1.506-5.070-3.353-5.070-1.604 0-2.948 1.701-3.272 3.985 0.583-0.47 1.247-0.729 1.944-0.729z"></path>
<path fill="#374656" style="fill: var(--color6, #374656)" d="M3.876 0.229c-2.997 0-5.573 3.45-2.219 3.985s9.46 3.418 12.036 5.41c0.194 0.227 0.956 0.162 0.907-0.437-0.016-2.284-7.079-8.958-10.724-8.958z"></path>
<path fill="#000" style="fill: var(--color7, #000)" opacity="0.3" d="M18.162 24.867c0 0 5.88-0.016 9.898 4.503-0.049-0.227-0.113-0.453-0.21-0.664-2.479-5.751-9.704-5.718-9.704-5.718s-7.225-0.032-9.703 5.718c-0.097 0.21-0.162 0.437-0.21 0.664 4.034-4.52 9.93-4.503 9.93-4.503z"></path>
<path fill="#374656" style="fill: var(--color6, #374656)" d="M30.201 17.643c1.852 0 3.353-2.27 3.353-5.070s-1.501-5.070-3.353-5.070c-1.852 0-3.353 2.27-3.353 5.070s1.501 5.070 3.353 5.070z"></path>
<path fill="#000" style="fill: var(--color7, #000)" opacity="0.3" d="M31.53 10.758c-1.96 0-3.596 2.009-4.066 4.73-0.389-0.826-0.616-1.831-0.616-2.916 0-2.803 1.506-5.070 3.353-5.070 1.604 0 2.948 1.701 3.272 3.985-0.583-0.47-1.248-0.729-1.944-0.729z"></path>
<path fill="#374656" style="fill: var(--color6, #374656)" d="M33.78 0.229c2.997 0 5.573 3.45 2.219 3.985s-9.46 3.418-12.036 5.41c-0.194 0.227-0.956 0.162-0.907-0.437 0.016-2.284 7.079-8.958 10.724-8.958z"></path>
</symbol>
<symbol id="icon-add-icon" viewBox="0 0 32 32">
<path d="M32 18.286h-13.714v13.714h-4.571v-13.714h-13.714v-4.571h13.714v-13.714h4.571v13.714h13.714v4.571z"></path>
</symbol>
<symbol id="icon-arrow" viewBox="0 0 32 32">
<path fill="#374656" style="fill: var(--color6, #374656)" d="M3.304 0.845v4.908l19.442 0.017-21.183 21.183 3.481 3.481 21.183-21.183 0.017 19.442h4.908v-27.849h-27.849z"></path>
</symbol>
<symbol id="icon-bell" viewBox="0 0 32 32">
<path fill="#374656" style="fill: var(--color6, #374656)" d="M16 32c1.76 0 3.2-1.44 3.2-3.2h-6.4c0 1.76 1.44 3.2 3.2 3.2zM25.6 22.4v-8c0-4.912-2.608-9.024-7.2-10.112v-1.088c0-1.328-1.072-2.4-2.4-2.4s-2.4 1.072-2.4 2.4v1.088c-4.576 1.088-7.2 5.184-7.2 10.112v8l-3.2 3.2v1.6h25.6v-1.6l-3.2-3.2zM22.4 24h-12.8v-9.6c0-3.968 2.416-7.2 6.4-7.2s6.4 3.232 6.4 7.2v9.6z"></path>
</symbol>
<symbol id="icon-chat" viewBox="0 0 32 32">
<path  d="M28.192 0.762h-24.381c-1.676 0-3.048 1.371-3.048 3.048v27.429l6.095-6.095h21.333c1.676 0 3.048-1.371 3.048-3.048v-18.286c0-1.676-1.371-3.048-3.048-3.048zM28.192 22.095h-22.598l-1.783 1.783v-20.069h24.381v18.286zM8.382 11.428h3.048v3.048h-3.048v-3.048zM20.573 11.428h3.048v3.048h-3.048v-3.048zM14.478 11.428h3.048v3.048h-3.048v-3.048z"></path>
</symbol>
<symbol id="icon-check" viewBox="0 0 32 32">
<path fill="#fff" style="fill: var(--color4, #fff)" d="M10.667 23.466l-7.467-7.467-2.489 2.489 9.956 9.956 21.333-21.333-2.489-2.489-18.844 18.844z"></path>
</symbol>
<symbol id="icon-copy" viewBox="0 0 32 32">
<path fill="#374656" style="fill: var(--color6, #374656)" d="M26.526 28.727h-15.439v-19.798h15.439v19.798zM26.526 6.101h-15.439c-0.744 0-1.458 0.298-1.985 0.828s-0.822 1.25-0.822 2v19.798c0 0.75 0.296 1.47 0.822 2s1.24 0.828 1.985 0.828h15.439c0.744 0 1.458-0.298 1.985-0.828s0.822-1.25 0.822-2v-19.798c0-0.75-0.296-1.47-0.822-2s-1.24-0.828-1.985-0.828zM22.316 0.444h-16.842c-0.744 0-1.458 0.298-1.985 0.828s-0.822 1.25-0.822 2v19.798h2.807v-19.798h16.842v-2.828z"></path>
</symbol>
<symbol id="icon-cross" viewBox="0 0 32 32">
<path  d="M27.314 31.085l-11.314-11.314-11.314 11.314-3.771-3.771 11.314-11.314-11.314-11.314 3.771-3.771 11.314 11.314 11.314-11.314 3.771 3.771-11.314 11.314 11.314 11.314-3.771 3.771z"></path>
</symbol>
<symbol id="icon-cross-input" viewBox="0 0 32 32">
<path fill="#374656" style="fill: var(--color6, #374656)" d="M27.314 31.085l-11.314-11.314-11.314 11.314-3.771-3.771 11.314-11.314-11.314-11.314 3.771-3.771 11.314 11.314 11.314-11.314 3.771 3.771-11.314 11.314 11.314 11.314-3.771 3.771z"></path>
</symbol>
<symbol id="icon-done" viewBox="0 0 32 32">
<path fill="#788392" style="fill: var(--color9, #788392)" d="M8.933 24l-7.533-7.533 1.9-1.867 7.533 7.533-1.9 1.867zM16.466 24l-7.533-7.533 1.867-1.9 5.667 5.667 12.267-12.267 1.867 1.9-14.133 14.133zM16.466 16.467l-1.9-1.867 6.6-6.6 1.9 1.867-6.6 6.6z"></path>
</symbol>
<symbol id="icon-email" viewBox="0 0 32 32">
<path d="M31.24 6.857c0-1.676-1.371-3.048-3.048-3.048h-24.381c-1.676 0-3.048 1.371-3.048 3.048v18.286c0 1.676 1.371 3.048 3.048 3.048h24.381c1.676 0 3.048-1.371 3.048-3.048v-18.286zM28.192 6.857l-12.191 7.619-12.19-7.619h24.381zM28.192 25.143h-24.381v-15.238l12.19 7.619 12.191-7.619v15.238z"></path>
</symbol>
<symbol id="icon-exclamation" viewBox="0 0 32 32">
<path fill="#ff4081" style="fill: var(--color10, #ff4081)" d="M16 31.429c-0.943 0-1.75-0.336-2.421-1.007s-1.007-1.479-1.007-2.422 0.336-1.75 1.007-2.422c0.671-0.671 1.479-1.007 2.421-1.007s1.75 0.336 2.421 1.007c0.671 0.672 1.007 1.479 1.007 2.422s-0.336 1.75-1.007 2.422c-0.671 0.671-1.479 1.007-2.421 1.007zM12.571 21.143v-20.571h6.857v20.571h-6.857z"></path>
</symbol>
<symbol id="icon-eye" viewBox="0 0 32 32">
<path d="M16 8c5.513 0 10.429 3.098 12.829 8-2.4 4.902-7.302 8-12.829 8s-10.429-3.098-12.829-8c2.4-4.902 7.316-8 12.829-8zM16 5.091c-7.273 0-13.484 4.524-16 10.909 2.516 6.385 8.727 10.909 16 10.909s13.484-4.524 16-10.909c-2.516-6.385-8.727-10.909-16-10.909zM16 12.364c2.007 0 3.636 1.629 3.636 3.636s-1.629 3.636-3.636 3.636c-2.007 0-3.636-1.629-3.636-3.636s1.629-3.636 3.636-3.636zM16 9.455c-3.607 0-6.545 2.938-6.545 6.545s2.938 6.545 6.545 6.545c3.607 0 6.545-2.938 6.545-6.545s-2.938-6.545-6.545-6.545z"></path>
</symbol>
<symbol id="icon-for-select" viewBox="0 0 32 32">
<path d="M28.24 6.12l-12.24 12.213-12.24-12.213-3.76 3.76 16 16 16-16-3.76-3.76z"></path>
</symbol>
<symbol id="icon-in-progress" viewBox="0 0 32 32">
<path fill="#f4bb00" style="fill: var(--color11, #f4bb00)" d="M8.5 18.25c0.625 0 1.156-0.219 1.594-0.656s0.656-0.969 0.656-1.594-0.219-1.156-0.656-1.594c-0.438-0.438-0.969-0.656-1.594-0.656s-1.156 0.219-1.594 0.656c-0.437 0.438-0.656 0.969-0.656 1.594s0.219 1.156 0.656 1.594c0.438 0.437 0.969 0.656 1.594 0.656zM16 18.25c0.625 0 1.156-0.219 1.594-0.656s0.656-0.969 0.656-1.594-0.219-1.156-0.656-1.594c-0.438-0.438-0.969-0.656-1.594-0.656s-1.156 0.219-1.594 0.656c-0.438 0.438-0.656 0.969-0.656 1.594s0.219 1.156 0.656 1.594c0.438 0.437 0.969 0.656 1.594 0.656zM23.5 18.25c0.625 0 1.156-0.219 1.594-0.656s0.656-0.969 0.656-1.594-0.219-1.156-0.656-1.594c-0.438-0.438-0.969-0.656-1.594-0.656s-1.156 0.219-1.594 0.656c-0.437 0.438-0.656 0.969-0.656 1.594s0.219 1.156 0.656 1.594c0.438 0.437 0.969 0.656 1.594 0.656zM16 31c-2.075 0-4.025-0.394-5.85-1.181s-3.412-1.856-4.763-3.206-2.419-2.938-3.206-4.763c-0.788-1.825-1.181-3.775-1.181-5.85s0.394-4.025 1.181-5.85c0.788-1.825 1.856-3.412 3.206-4.763s2.937-2.419 4.763-3.206c1.825-0.788 3.775-1.181 5.85-1.181s4.025 0.394 5.85 1.181c1.825 0.788 3.413 1.856 4.763 3.206s2.419 2.937 3.206 4.763c0.787 1.825 1.181 3.775 1.181 5.85s-0.394 4.025-1.181 5.85c-0.788 1.825-1.856 3.413-3.206 4.763s-2.938 2.419-4.763 3.206c-1.825 0.787-3.775 1.181-5.85 1.181zM16 28c3.35 0 6.188-1.162 8.513-3.487s3.487-5.163 3.487-8.513c0-3.35-1.162-6.188-3.487-8.512s-5.163-3.487-8.513-3.487c-3.35 0-6.188 1.163-8.512 3.487s-3.487 5.162-3.487 8.512c0 3.35 1.163 6.188 3.487 8.513s5.162 3.487 8.512 3.487z"></path>
</symbol>
<symbol id="icon-normal-gray" viewBox="0 0 32 32">
<path fill="#dbdbdb" style="fill: var(--color5, #dbdbdb)" d="M16 32c8.837 0 16-7.163 16-16s-7.163-16-16-16-16 7.163-16 16c0 8.837 7.163 16 16 16z"></path>
<path fill="#374656" style="fill: var(--color6, #374656)" d="M13.247 9.431c0.095-0.724-0.505-1.267-1.629-1.41-0.962-0.124-3.143 0.238-4.876 2.286-0.324 0.381 0.057 0.657 0.362 0.428 1.010-0.79 3.543-1.648 5.371-1.162 0.733 0.181 0.771-0.143 0.771-0.143z"></path>
<path fill="#374656" style="fill: var(--color6, #374656)" d="M11.029 16.745c0.81 0 1.467-0.994 1.467-2.219s-0.657-2.219-1.467-2.219c-0.81 0-1.467 0.993-1.467 2.219s0.657 2.219 1.467 2.219z"></path>
<path fill="#000" style="fill: var(--color7, #000)" opacity="0.3" d="M11.029 13.060c0.629 0 1.181 0.552 1.467 1.362-0.019-1.2-0.667-2.162-1.467-2.162s-1.448 0.962-1.467 2.162c0.286-0.809 0.829-1.362 1.467-1.362z"></path>
<path fill="#374656" style="fill: var(--color6, #374656)" d="M20.971 16.745c0.81 0 1.467-0.994 1.467-2.219s-0.657-2.219-1.467-2.219-1.467 0.993-1.467 2.219c0 1.226 0.657 2.219 1.467 2.219z"></path>
<path fill="#000" style="fill: var(--color7, #000)" opacity="0.3" d="M20.971 13.117c-0.629 0-1.181 0.552-1.467 1.362 0.019-1.2 0.667-2.162 1.467-2.162s1.448 0.962 1.467 2.162c-0.286-0.809-0.829-1.362-1.467-1.362z"></path>
<path fill="#374656" style="fill: var(--color6, #374656)" d="M18.752 9.431c-0.095-0.724 0.505-1.267 1.629-1.41 0.962-0.124 3.143 0.238 4.876 2.286 0.324 0.381-0.057 0.657-0.362 0.428-1.009-0.79-3.543-1.648-5.371-1.162-0.733 0.181-0.771-0.143-0.771-0.143z"></path>
<path fill="#374656" style="fill: var(--color6, #374656)" d="M22.42 22.746h-12.838c-0.39 0-0.714-0.324-0.714-0.714s0.324-0.714 0.714-0.714h12.838c0.39 0 0.714 0.324 0.714 0.714s-0.324 0.714-0.714 0.714z"></path>
<path fill="#000" style="fill: var(--color7, #000)" opacity="0.3" d="M9.515 21.698h12.981c0.276 0 0.524 0.162 0.638 0.39 0-0.019 0-0.038 0-0.057 0-0.39-0.324-0.714-0.714-0.714h-12.838c-0.39 0-0.714 0.324-0.714 0.714 0 0.019 0 0.038 0 0.057 0.124-0.238 0.362-0.39 0.648-0.39z"></path>
</symbol>
<symbol id="icon-phone" viewBox="0 0 32 32">
<path d="M29.128 22.991c-2.035 0-4.020-0.328-5.858-0.935-0.164-0.066-0.345-0.082-0.509-0.082-0.427 0-0.837 0.164-1.165 0.476l-3.61 3.61c-4.644-2.38-8.451-6.17-10.814-10.814l3.61-3.61c0.46-0.459 0.591-1.099 0.41-1.674-0.607-1.838-0.935-3.807-0.935-5.858 0-0.903-0.738-1.641-1.641-1.641h-5.744c-0.903 0-1.641 0.738-1.641 1.641 0 15.409 12.488 27.897 27.897 27.897 0.903 0 1.641-0.738 1.641-1.641v-5.727c0-0.903-0.738-1.641-1.641-1.641zM25.846 12.308h-4.25l8.238-8.238-2.314-2.314-8.238 8.238v-4.25h-3.282v9.846h9.846v-3.282z"></path>
</symbol>
<symbol id="icon-sad-gray" viewBox="0 0 32 32">
<path fill="#dbdbdb" style="fill: var(--color5, #dbdbdb)" d="M16 32c8.837 0 16-7.163 16-16s-7.163-16-16-16c-8.837 0-16 7.163-16 16s7.163 16 16 16z"></path>
<path fill="#374656" style="fill: var(--color6, #374656)" d="M15.946 19.050c0 0 3.161-0.014 4.245 2.502 0.071 0.156 0.113 0.326 0.128 0.503 0.028 0.347-0.213 0.709-0.822 0.475-0.964-0.376-2.615-0.574-3.551-0.574-0.928 0-2.587 0.191-3.551 0.574-0.602 0.234-0.843-0.128-0.822-0.475 0.014-0.177 0.057-0.347 0.127-0.503 1.084-2.509 4.245-2.502 4.245-2.502z"></path>
<path fill="#374656" style="fill: var(--color6, #374656)" d="M11.262 16.719c0.81 0 1.467-0.993 1.467-2.218s-0.657-2.218-1.467-2.218c-0.81 0-1.467 0.993-1.467 2.218s0.657 2.218 1.467 2.218z"></path>
<path fill="#000" style="fill: var(--color7, #000)" d="M10.681 13.707c0.858 0 1.573 0.879 1.779 2.069 0.17-0.361 0.27-0.801 0.27-1.276 0-1.226-0.659-2.218-1.467-2.218-0.702 0-1.29 0.744-1.432 1.743 0.255-0.206 0.546-0.319 0.85-0.319z"></path>
<path fill="#374656" style="fill: var(--color6, #374656)" d="M9.696 9.1c-1.311 0-2.438 1.51-0.971 1.743s4.139 1.495 5.266 2.367c0.085 0.099 0.418 0.071 0.397-0.191-0.007-0.999-3.097-3.919-4.692-3.919z"></path>
<path fill="#000" style="fill: var(--color7, #000)" d="M15.946 19.879c0 0 2.573-0.007 4.33 1.97-0.021-0.099-0.050-0.198-0.092-0.291-1.084-2.516-4.245-2.502-4.245-2.502s-3.161-0.014-4.245 2.502c-0.043 0.092-0.071 0.191-0.092 0.291 1.765-1.977 4.344-1.97 4.344-1.97z"></path>
<path fill="#374656" style="fill: var(--color6, #374656)" d="M21.213 16.719c0.81 0 1.467-0.993 1.467-2.218s-0.657-2.218-1.467-2.218c-0.81 0-1.467 0.993-1.467 2.218s0.657 2.218 1.467 2.218z"></path>
<path fill="#000" style="fill: var(--color7, #000)" d="M21.794 13.707c-0.858 0-1.573 0.879-1.779 2.069-0.17-0.361-0.269-0.801-0.269-1.276 0-1.226 0.659-2.218 1.467-2.218 0.702 0 1.29 0.744 1.432 1.743-0.255-0.206-0.546-0.319-0.851-0.319z"></path>
<path fill="#374656" style="fill: var(--color6, #374656)" d="M22.779 9.1c1.311 0 2.438 1.51 0.971 1.743s-4.139 1.495-5.266 2.367c-0.085 0.099-0.418 0.071-0.397-0.191 0.007-0.999 3.097-3.919 4.692-3.919z"></path>
</symbol>
<symbol id="icon-side-arrow" viewBox="0 0 32 32">
<path fill="#374656" style="fill: var(--color6, #374656)" d="M6.12 3.76l12.213 12.24-12.213 12.24 3.76 3.76 16-16-16-16-3.76 3.76z"></path>
</symbol>
<symbol id="icon-small-side-arrow" viewBox="0 0 32 32">
<path d="M6.12 3.76l12.213 12.24-12.213 12.24 3.76 3.76 16-16-16-16-3.76 3.76z"></path>
</symbol>
<symbol id="icon-left-side-arrow" viewBox="0 0 24 24">
<path  d="M15.7051 16.59L11.1251 12L15.7051 7.41L14.2951 6L8.29508 12L14.2951 18L15.7051 16.59Z"/>
</symbol>
<symbol id="icon-strip" viewBox="0 0 24 24">
<path d="M19 13H13H11H5V11H11H13H19V13Z"/>
</symbol>
<symbol id="icon-edit" viewBox="0 0 16 16">
<path d="M12.7014 5.32312C12.912 5.11259 12.912 4.7617 12.7014 4.56196L11.4382 3.29877C11.2385 3.08824 10.8876 3.08824 10.6771 3.29877L9.68381 4.28665L11.7082 6.311L12.7014 5.32312ZM3.14111 10.8347V12.8591H5.16546L11.1359 6.88322L9.11159 4.85887L3.14111 10.8347Z" />
</symbol>
<symbol id="icon-message" viewBox="0 0 16 16"><path d="M10.0002 2.66659V7.33325H3.44683L3.0535 7.72659L2.66683 8.11325V2.66659H10.0002ZM10.6668 1.33325H2.00016C1.6335 1.33325 1.3335 1.63325 1.3335 1.99992V11.3333L4.00016 8.66659H10.6668C11.0335 8.66659 11.3335 8.36659 11.3335 7.99992V1.99992C11.3335 1.63325 11.0335 1.33325 10.6668 1.33325ZM14.0002 3.99992H12.6668V9.99992H4.00016V11.3333C4.00016 11.6999 4.30016 11.9999 4.66683 11.9999H12.0002L14.6668 14.6666V4.66659C14.6668 4.29992 14.3668 3.99992 14.0002 3.99992Z"/>
</symbol>
<symbol id="icon-telephone" viewBox="0 0 32 32">
<path d="M8.827 14.387c1.92 3.773 5.013 6.853 8.787 8.787l2.933-2.933c0.36-0.36 0.893-0.48 1.36-0.32 1.493 0.493 3.107 0.76 4.76 0.76 0.733 0 1.333 0.6 1.333 1.333v4.653c0 0.733-0.6 1.333-1.333 1.333-12.52 0-22.667-10.147-22.667-22.667 0-0.733 0.6-1.333 1.333-1.333h4.667c0.733 0 1.333 0.6 1.333 1.333 0 1.667 0.267 3.267 0.76 4.76 0.147 0.467 0.040 0.987-0.333 1.36l-2.933 2.933z"></path>
</symbol>
<symbol id="icon-arrow-to-top" viewBox="0 0 32 32">
<path  d="M9.88 20.94l6.12-6.107 6.12 6.107 1.88-1.88-8-8-8 8 1.88 1.88z"></path>
</symbol>

<symbol id="icon-Ukraine" viewBox="0 0 43 32">
<path fill="#3195f9" style="fill: var(--color1, #3195f9)" d="M0 0v32h42.667v-32h-42.667z"></path>
<path fill="#feca00" style="fill: var(--color2, #feca00)" d="M0 16v16h42.667v-16h-42.667z"></path>
</symbol>

<symbol id="icon-gender-man" viewBox="0 0 32 32">
<path fill="#3e83c4" style="fill: var(--color1, #3e83c4)" opacity="0.2" d="M16 0c8.837 0 16 7.163 16 16s-7.163 16-16 16c-8.837 0-16-7.163-16-16s7.163-16 16-16z"></path>
<path fill="none" stroke="#3e83c4" style="stroke: var(--color1, #3e83c4)" stroke-linejoin="miter" stroke-linecap="butt" stroke-miterlimit="4" stroke-width="1.6" d="M13.314 18.686c-2.603-2.603-2.603-6.823 0-9.426s6.823-2.603 9.426 0c2.603 2.603 2.603 6.823 0 9.426s-6.823 2.603-9.426 0zM13.314 18.686l-5.954 5.954M11.94 24.516l-4.456-4.456"></path>
</symbol>

<symbol id="icon-gender-woman" viewBox="0 0 32 32">
<path fill="#ff4081" style="fill: var(--color2, #ff4081)" opacity="0.2" d="M16 0c8.837 0 16 7.163 16 16s-7.163 16-16 16c-8.837 0-16-7.163-16-16s7.163-16 16-16z"></path>
<path fill="none" stroke="#ff4081" style="stroke: var(--color2, #ff4081)" stroke-linejoin="miter" stroke-linecap="butt" stroke-miterlimit="4" stroke-width="1.6" d="M18.567 14.264c2.603 2.603 2.603 6.823 0 9.426s-6.823 2.603-9.426 0-2.603-6.823 0-9.426c2.603-2.603 6.823-2.603 9.426 0zM18.567 14.264l5.954-5.954M24.521 8.31l-4.342-0.145M24.521 8.31l0.144 4.342"></path>
</symbol>

<symbol id="icon-verification" viewBox="0 0 30 32">
<path fill="#f4bb00" style="fill: var(--color13, #f4bb00)" d="M10.921 29.333l-2.413-4.064-4.571-1.016 0.444-4.698-3.111-3.555 3.111-3.556-0.444-4.698 4.571-1.016 2.413-4.064 4.318 1.841 4.317-1.841 2.413 4.064 4.571 1.016-0.444 4.698 3.111 3.556-3.111 3.555 0.444 4.698-4.571 1.016-2.413 4.064-4.317-1.841-4.318 1.841zM12 26.095l3.238-1.397 3.301 1.397 1.778-3.048 3.492-0.825-0.318-3.555 2.349-2.667-2.349-2.73 0.318-3.556-3.492-0.762-1.841-3.048-3.238 1.397-3.302-1.397-1.778 3.048-3.492 0.762 0.317 3.556-2.349 2.73 2.349 2.667-0.317 3.619 3.492 0.762 1.841 3.048zM13.905 20.508l7.175-7.175-1.778-1.841-5.397 5.397-2.73-2.667-1.778 1.778 4.508 4.508z"></path>
</symbol>

<symbol id="icon-arrow3" viewBox="0 0 32 32">
<path d="M16 5.333l-1.88 1.88 7.44 7.453h-16.227v2.667h16.227l-7.44 7.453 1.88 1.88 10.667-10.667-10.667-10.667z"></path>
</symbol>

<symbol id="icon-notification_icon" viewBox="0 0 32 32">
<path fill="#e4b20b" style="fill: var(--color2, #e4b20b)" opacity="0.3" d="M14.569 2.862l-13.411 26.822c-0.532 1.064 0.242 2.316 1.431 2.316h26.822c1.189 0 1.963-1.252 1.431-2.316l-13.411-26.822c-0.59-1.179-2.272-1.179-2.862 0z"></path>
<path fill="#e4b20b" style="fill: var(--color2, #e4b20b)" d="M16 29.333c0.982 0 1.778-0.796 1.778-1.778s-0.796-1.778-1.778-1.778c-0.982 0-1.778 0.796-1.778 1.778s0.796 1.778 1.778 1.778z"></path>
<path fill="#e4b20b" style="fill: var(--color2, #e4b20b)" d="M14.222 13.333h3.556v10.667h-3.556v-10.667z"></path>
</symbol>

<symbol id="icon-heart_risk" viewBox="0 0 30 32">
<path fill="#3e83c4" style="fill: var(--color1, #3e83c4)" d="M15.059 21.020c2.133-1.924 3.503-3.278 4.11-4.063s0.91-1.563 0.91-2.337c0-0.753-0.272-1.401-0.816-1.945s-1.192-0.816-1.945-0.816c-0.439 0-0.863 0.089-1.271 0.267s-0.737 0.424-0.988 0.737c-0.251-0.314-0.575-0.559-0.973-0.737s-0.826-0.267-1.286-0.267c-0.753 0-1.401 0.272-1.945 0.816s-0.816 1.192-0.816 1.945c0 0.397 0.052 0.763 0.157 1.098s0.335 0.727 0.69 1.176c0.356 0.45 0.863 0.999 1.522 1.647s1.542 1.475 2.651 2.478zM15.059 28.549c-2.907-0.732-5.307-2.4-7.2-5.004s-2.839-5.495-2.839-8.675v-7.655l10.039-3.765 10.039 3.765v7.655c0 3.179-0.946 6.071-2.839 8.675s-4.293 4.272-7.2 5.004zM15.059 25.914c2.175-0.69 3.974-2.071 5.396-4.141s2.133-4.371 2.133-6.902v-5.929l-7.529-2.824-7.529 2.824v5.929c0 2.531 0.711 4.831 2.133 6.902s3.221 3.451 5.396 4.141z"></path>
</symbol>

  <symbol id="junior" viewBox="0 0 18 16" fill="none" xmlns="http://www.w3.org/2000/svg">
      <path d="M9.036 4.66864C9.036 2.70615 10.5086 1.11523 12.3252 1.11523C14.1419 1.11523 15.613 2.71003 15.613 4.67252M9.036 4.66864C9.036 4.66864 12.2613 4.30985 13.5544 3.04754C14.8475 4.30985 15.613 4.67252 15.613 4.67252M9.036 4.66864C9.036 5.30591 9.19128 5.904 9.46321 6.42115C9.8947 7.24177 10.6199 7.85861 11.4843 8.10485M9.036 4.66864V9.55631M11.4843 8.10485C11.7527 8.18131 12.0346 8.22204 12.3252 8.22204C12.6159 8.22204 12.8963 8.18519 13.1647 8.10873M11.4843 8.10485C11.4166 8.33643 11.0994 8.86251 10.3722 9.11413M10.3722 9.11413C10.547 9.41119 11.4843 9.95287 12.3252 9.95287C13.1662 9.95287 14.1021 9.41507 14.2768 9.11802M10.3722 9.11413C9.93745 9.26456 9.47488 9.36703 9.036 9.55631M7.20073 13.5437C7.15704 12.9584 7.20597 11.5661 7.75115 10.6644C8.10669 10.0764 8.55725 9.76278 9.036 9.55631M15.613 4.67252C15.613 5.30979 15.4578 5.90788 15.1858 6.42504C14.7543 7.24566 14.0292 7.86249 13.1647 8.10873M15.613 4.67252V9.5602M13.1647 8.10873C13.2324 8.34032 13.5496 8.8664 14.2768 9.11802M14.2768 9.11802C14.7116 9.26845 15.1742 9.37092 15.613 9.5602M15.613 9.5602C16.0918 9.76667 16.5424 10.0764 16.8979 10.6644C17.4431 11.5661 17.492 14.2992 17.4483 14.8846H0.539062C0.539062 14.8846 0.747483 12.7103 2.51941 11.8707M3.72473 7.62662C2.56811 7.81825 1.68613 8.82321 1.68613 10.0342C1.68613 10.7665 2.00866 11.4234 2.51941 11.8707M3.72473 7.62662C3.85547 7.60496 3.98972 7.59369 4.12661 7.59369C5.47444 7.59369 6.56708 8.68633 6.56708 10.0342C6.56708 10.7831 6.22975 11.4532 5.69875 11.9009M3.72473 7.62662C2.56806 7.36049 3.00321 5.87382 4.12661 5.87382M7.61734 14.8846C7.61734 14.8846 7.41379 12.761 5.69875 11.9009M2.51941 11.8707C2.94874 12.2467 3.51106 12.4746 4.12661 12.4746C4.72554 12.4746 5.27409 12.2589 5.69875 11.9009" stroke="#C081DD" stroke-width="0.888096"/>
    </symbol>

    <symbol id="icon-label_important" viewBox="0 0 32 32">
<path fill="#b2bac4" style="fill: var(--color3, #b2bac4)" d="M4 25.333l6-9.333-6-9.333h16c0.444 0 0.861 0.1 1.25 0.3s0.706 0.478 0.95 0.833l5.8 8.2-5.8 8.2c-0.244 0.356-0.561 0.633-0.95 0.833s-0.805 0.3-1.25 0.3h-16zM8.867 22.666h11.133l4.733-6.667-4.733-6.667h-11.133l4.333 6.667-4.333 6.667z"></path>
</symbol>

<symbol id="icon--calculator" viewBox="0 0 31 32">
<path d="M24.32 4.48h-17.92c-1.408 0-2.56 1.152-2.56 2.56v17.92c0 1.408 1.152 2.56 2.56 2.56h17.92c1.408 0 2.56-1.152 2.56-2.56v-17.92c0-1.408-1.152-2.56-2.56-2.56zM22.515 7.040l-16.115 16.115v-16.115h16.115zM8.205 24.96l16.115-16.115v16.115h-16.115zM7.68 9.6h6.4v1.92h-6.4v-1.92zM20.48 16.64h-1.92v2.56h-2.56v1.92h2.56v2.56h1.92v-2.56h2.56v-1.92h-2.56v-2.56z"></path>
</symbol>

<symbol id="icon-grivna" viewBox="0 0 32 32">
<path fill="#206eb7" style="fill: var(--color3, #206eb7); stroke: var(--color3, #206eb7)" stroke="#206eb7" stroke-linejoin="miter" stroke-linecap="butt" stroke-miterlimit="4" stroke-width="0.8" d="M15.542 3.954l0.013-0.001 1.024 0c1.541 0.033 2.967 0.593 4.266 1.652 1.332 1.085 2.015 2.474 2.015 4.138 0 0.967-0.179 1.834-0.544 2.59h1.684v1.997h-3.431c-1.030 0.74-2.447 1.387-4.22 1.954-1.349 0.444-2.439 0.906-3.284 1.382h10.935v2h-13.075c-0.293 0.58-0.442 1.258-0.442 2.044 0 1.528 0.571 2.586 1.687 3.264 1.203 0.73 2.484 1.092 3.853 1.092 1.476 0 2.63-0.34 3.5-0.979 0.889-0.653 1.599-1.601 2.119-2.872l0.19-0.466 1.729 0.865-0.138 0.389c-0.514 1.445-1.355 2.621-2.523 3.513-1.176 0.898-2.616 1.401-4.298 1.528l-0.028 0.002-1.031-0.047c-1.941-0.096-3.598-0.711-4.944-1.863-1.363-1.166-2.052-2.669-2.052-4.472l0-0.008c0.013-0.716 0.111-1.38 0.297-1.99h-0.846v-2h1.939c0.094-0.108 0.193-0.214 0.296-0.316 1.073-1.057 2.757-1.958 4.999-2.725l0.005-0.002 0.005-0.002c0.307-0.097 0.6-0.195 0.879-0.292h-8.124v-1.997h11.938c0.657-0.708 0.987-1.562 0.987-2.59 0-1.254-0.473-2.194-1.421-2.874-0.99-0.711-2.159-1.073-3.527-1.073-1.089 0-1.982 0.222-2.699 0.641-0.749 0.438-1.358 0.993-1.834 1.664l-0.262 0.37-1.585-1.056 0.259-0.388c0.703-1.054 1.536-1.831 2.506-2.3 0.943-0.455 2.006-0.71 3.181-0.774z"></path>
</symbol>

<symbol id="icon-usd" viewBox="0 0 32 32">
<path fill="#388600" style="fill: var(--color4, #388600); stroke: var(--color4, #388600)" stroke="#388600" stroke-linejoin="miter" stroke-linecap="butt" stroke-miterlimit="4" stroke-width="0.8" d="M15 28v-2.8c-1.267-0.222-2.306-0.706-3.117-1.45s-1.394-1.683-1.75-2.817l1.867-0.767c0.378 1.067 0.922 1.861 1.633 2.383s1.567 0.783 2.567 0.783c1.067 0 1.944-0.267 2.633-0.8s1.033-1.267 1.033-2.2c0-0.978-0.306-1.733-0.917-2.267s-1.761-1.078-3.45-1.633c-1.6-0.511-2.794-1.189-3.583-2.033s-1.183-1.9-1.183-3.167c0-1.222 0.394-2.244 1.183-3.067s1.817-1.289 3.083-1.4v-2.767h2v2.767c1 0.111 1.861 0.439 2.583 0.983s1.272 1.239 1.65 2.083l-1.867 0.8c-0.311-0.711-0.728-1.228-1.25-1.55s-1.206-0.483-2.050-0.483c-1.022 0-1.833 0.233-2.433 0.7s-0.9 1.1-0.9 1.9c0 0.844 0.333 1.528 1 2.050s1.9 1.061 3.7 1.617c1.511 0.467 2.628 1.139 3.35 2.017s1.083 1.983 1.083 3.317c0 1.4-0.411 2.528-1.233 3.383s-2.033 1.406-3.633 1.65v2.767h-2z"></path>
</symbol>

<symbol id="icon-euro" viewBox="0 0 32 32">
<path fill="#cc5ab3" style="fill: var(--color5, #cc5ab3); stroke: var(--color5, #cc5ab3)" stroke="#cc5ab3" stroke-linejoin="miter" stroke-linecap="butt" stroke-miterlimit="4" stroke-width="0.8" d="M19.626 26.877c-2.317 0-4.457-0.68-6.421-2.040s-3.299-3.198-4.004-5.514h-4.079v-1.813h3.717c-0.081-0.564-0.116-1.068-0.106-1.511s0.045-0.947 0.106-1.511h-3.717v-1.813h4.079c0.705-2.317 2.040-4.155 4.004-5.514s4.104-2.040 6.421-2.040c1.39 0 2.694 0.237 3.913 0.71s2.332 1.163 3.339 2.070l-1.299 1.269c-0.826-0.725-1.753-1.279-2.78-1.662s-2.085-0.574-3.173-0.574c-1.894 0-3.621 0.529-5.182 1.586s-2.664 2.442-3.309 4.155h8.491v1.813h-8.944c-0.101 0.544-0.151 1.047-0.151 1.511s0.050 0.967 0.151 1.511h8.944v1.813h-8.491c0.645 1.712 1.747 3.097 3.309 4.155s3.288 1.586 5.182 1.586c1.068 0 2.115-0.181 3.142-0.544s1.974-0.927 2.84-1.692l1.269 1.269c-0.886 0.846-1.964 1.521-3.233 2.024s-2.608 0.755-4.019 0.755z"></path>
</symbol>

<symbol id="icon-calendar" viewBox="0 0 33 32">
<path fill="#374656" style="fill: var(--color1, #374656)" d="M25.669 5.624h-2.139v-2.306l-2.653 0v2.306h-8.863v-2.306h-2.666v2.306h-2.126c-1.268 0-2.306 1.038-2.306 2.306v18.447c0 1.268 1.038 2.306 2.306 2.306h18.447c1.268 0 2.306-1.038 2.306-2.306v-18.447c0-1.268-1.038-2.306-2.306-2.306zM25.312 26.013h-17.733v-14.653h17.733v14.653z"></path>
</symbol>

<symbol id="icon-person" viewBox="0 0 31 32">
<path  d="M15.36 8.192c1.485 0 2.688 1.203 2.688 2.688s-1.203 2.688-2.688 2.688c-1.485 0-2.688-1.203-2.688-2.688s1.203-2.688 2.688-2.688zM15.36 19.712c3.802 0 7.808 1.869 7.808 2.688v1.408h-15.616v-1.408c0-0.819 4.006-2.688 7.808-2.688zM15.36 5.76c-2.829 0-5.12 2.291-5.12 5.12s2.291 5.12 5.12 5.12c2.829 0 5.12-2.291 5.12-5.12s-2.291-5.12-5.12-5.12zM15.36 17.28c-3.418 0-10.24 1.715-10.24 5.12v3.84h20.48v-3.84c0-3.405-6.822-5.12-10.24-5.12z"></path>
</symbol>

</defs>
</svg>
