<svg aria-hidden="true" style="position: absolute; width: 0; height: 0; overflow: hidden;" version="1.1" xmlns="http://www.w3.org/2000/svg" xmlns:xlink="http://www.w3.org/1999/xlink">
<defs>
<symbol id="icon-happy-active" viewBox="0 0 32 32">
<path fill="#ffdf30" style="fill: var(--color1, #ffdf30)" d="M16 32c8.837 0 16-7.163 16-16s-7.163-16-16-16c-8.837 0-16 7.163-16 16s7.163 16 16 16z"></path>
<path fill="#3c2200" style="fill: var(--color2, #3c2200)" d="M26.528 16.384c-0.113-0.043-0.241-0.050-0.354-0.014-3.218 0.921-6.556 1.382-9.929 1.382s-6.719-0.468-9.929-1.382c-0.12-0.035-0.241-0.028-0.354 0.014-0.347 0.142-0.9 0.666-0.17 2.672v0.007c1.077 2.566 3.933 7.073 10.447 7.073 6.499 0 9.355-4.514 10.461-7.073 0.723-2.013 0.177-2.537-0.17-2.679z"></path>
<path fill="#3c2200" style="fill: var(--color2, #3c2200)" d="M12.211 6.618c-0.163-0.588-0.9-0.78-1.999-0.475-0.928 0.262-2.828 1.34-3.728 3.544-0.163 0.404 0.284 0.475 0.475 0.191 0.659-0.978 2.707-2.566 4.571-2.877 0.758-0.128 0.68-0.383 0.68-0.383z"></path>
<path fill="#7a4400" style="fill: var(--color3, #7a4400)" d="M12.113 11.352c-1.056-0.652-2.417-0.581-3.409 0.163-0.503 0.383-0.999 0.964-1.29 1.871-0.050 0.149-0.085 0.312-0.092 0.475-0.021 0.326 0.206 0.617 0.574 0.276 2.814-2.658 4.784 0.078 4.784 0.078 0.383 0.276 0.773-0.298 0.695-0.829-0.021-0.156-0.043-0.319-0.078-0.461-0.227-0.78-0.688-1.269-1.184-1.573z"></path>
<path fill="#3c2200" style="fill: var(--color2, #3c2200)" d="M26.322 16.342c-0.021 0-0.043 0-0.071 0.007-3.246 0.936-6.612 1.41-10.021 1.41s-6.775-0.475-10.021-1.41c-0.021-0.007-0.043-0.007-0.071-0.007-0.22 0.021-1.269 0.241-0.369 2.721v0.007c0.439 1.035 1.169 2.388 2.31 3.629-1.070-1.269 0.248-1.97 2.594-1.687s5.556 0.291 5.556 0.291 3.203-0.007 5.556-0.291c2.346-0.284 3.664 0.418 2.594 1.687 1.141-1.24 1.871-2.594 2.31-3.629v-0.007c0.9-2.488-0.149-2.707-0.369-2.721z"></path>
<path fill="#fff" style="fill: var(--color4, #fff)" d="M24.515 19.829c0.893-0.191 1.566-0.936 1.651-1.85l0.085-0.893c-3.246 0.914-6.612 1.382-10.014 1.382s-6.768-0.468-10.014-1.382l0.085 0.893c0.085 0.907 0.758 1.651 1.651 1.85 2.707 0.588 5.486 0.879 8.278 0.879s5.571-0.298 8.278-0.879z"></path>
<path fill="#3c2200" style="fill: var(--color2, #3c2200)" d="M13.289 12.919c-0.099-0.319-0.234-0.595-0.383-0.822-0.227-0.326-0.503-0.567-0.793-0.744-1.056-0.652-2.417-0.581-3.409 0.163-0.503 0.383-0.999 0.964-1.29 1.871-0.028 0.085-0.050 0.177-0.064 0.269v0.007c1.24-1.935 3.026-2.069 3.026-2.069s1.772-0.149 2.97 1.58c-0.014-0.085-0.035-0.17-0.057-0.255z"></path>
<path fill="#3c2200" style="fill: var(--color2, #3c2200)" d="M20.264 6.618c0.163-0.588 0.9-0.78 1.999-0.475 0.928 0.262 2.828 1.34 3.728 3.544 0.163 0.404-0.283 0.475-0.475 0.191-0.659-0.978-2.707-2.566-4.571-2.877-0.758-0.128-0.68-0.383-0.68-0.383z"></path>
<path fill="#7a4400" style="fill: var(--color3, #7a4400)" d="M20.361 11.352c1.056-0.652 2.417-0.581 3.409 0.163 0.503 0.383 0.999 0.964 1.29 1.871 0.050 0.149 0.085 0.312 0.092 0.475 0.021 0.326-0.206 0.617-0.574 0.276-2.814-2.658-4.784 0.078-4.784 0.078-0.383 0.276-0.773-0.298-0.695-0.829 0.021-0.156 0.043-0.319 0.078-0.461 0.227-0.78 0.688-1.269 1.184-1.573z"></path>
<path fill="#3c2200" style="fill: var(--color2, #3c2200)" d="M19.186 12.919c0.099-0.319 0.234-0.595 0.383-0.822 0.227-0.326 0.503-0.567 0.793-0.744 1.056-0.652 2.417-0.581 3.409 0.163 0.503 0.383 0.999 0.964 1.29 1.871 0.028 0.085 0.050 0.177 0.064 0.269v0.007c-1.24-1.935-3.026-2.069-3.026-2.069s-1.772-0.149-2.97 1.58c0.014-0.085 0.035-0.17 0.057-0.255z"></path>
<path fill="#fff" style="fill: var(--color4, #fff)" d="M24.919 20.934c0.106-0.156-0.064-0.354-0.234-0.276-1.091 0.475-3.685 1.297-8.448 1.297-4.918 0-7.392-0.794-8.441-1.276-0.17-0.078-0.34 0.12-0.234 0.276 1.495 2.204 4.146 4.515 8.675 4.515 4.529-0.007 7.179-2.325 8.682-4.536z"></path>
</symbol>
<symbol id="icon-happy-gray" viewBox="0 0 32 32">
<path fill="#dbdbdb" style="fill: var(--color5, #dbdbdb)" d="M16 32c8.837 0 16-7.163 16-16s-7.163-16-16-16c-8.837 0-16 7.163-16 16s7.163 16 16 16z"></path>
<path fill="#374656" style="fill: var(--color6, #374656)" d="M26.528 16.384c-0.113-0.043-0.241-0.050-0.354-0.014-3.218 0.921-6.556 1.382-9.929 1.382s-6.719-0.468-9.929-1.382c-0.12-0.035-0.241-0.028-0.354 0.014-0.347 0.142-0.9 0.666-0.17 2.672v0.007c1.077 2.566 3.933 7.073 10.447 7.073 6.499 0 9.355-4.514 10.461-7.073 0.723-2.013 0.177-2.537-0.17-2.679z"></path>
<path fill="#374656" style="fill: var(--color6, #374656)" d="M12.211 6.618c-0.163-0.588-0.9-0.78-1.999-0.475-0.928 0.262-2.828 1.34-3.728 3.544-0.163 0.404 0.284 0.475 0.475 0.191 0.659-0.978 2.707-2.566 4.571-2.877 0.758-0.128 0.68-0.383 0.68-0.383z"></path>
<path fill="#374656" style="fill: var(--color6, #374656)" d="M12.113 11.352c-1.056-0.652-2.417-0.581-3.409 0.163-0.503 0.383-0.999 0.964-1.29 1.871-0.050 0.149-0.085 0.312-0.092 0.475-0.021 0.326 0.206 0.617 0.574 0.276 2.814-2.658 4.784 0.078 4.784 0.078 0.383 0.276 0.773-0.298 0.695-0.829-0.021-0.156-0.043-0.319-0.078-0.461-0.227-0.78-0.688-1.269-1.184-1.573z"></path>
<path fill="#000" style="fill: var(--color7, #000)" d="M26.322 16.342c-0.021 0-0.043 0-0.071 0.007-3.246 0.936-6.612 1.41-10.021 1.41s-6.775-0.475-10.021-1.41c-0.021-0.007-0.043-0.007-0.071-0.007-0.22 0.021-1.269 0.241-0.369 2.721v0.007c0.439 1.035 1.169 2.388 2.31 3.629-1.070-1.269 0.248-1.97 2.594-1.687s5.556 0.291 5.556 0.291 3.203-0.007 5.556-0.291c2.346-0.284 3.664 0.418 2.594 1.687 1.141-1.24 1.871-2.594 2.31-3.629v-0.007c0.9-2.488-0.149-2.707-0.369-2.721z"></path>
<path fill="#fff" style="fill: var(--color4, #fff)" d="M24.515 19.829c0.893-0.191 1.566-0.936 1.651-1.85l0.085-0.893c-3.246 0.914-6.612 1.382-10.014 1.382s-6.768-0.468-10.014-1.382l0.085 0.893c0.085 0.907 0.758 1.651 1.651 1.85 2.707 0.588 5.486 0.879 8.278 0.879s5.571-0.298 8.278-0.879z"></path>
<path fill="#000" style="fill: var(--color7, #000)" d="M13.289 12.919c-0.099-0.319-0.234-0.595-0.383-0.822-0.227-0.326-0.503-0.567-0.793-0.744-1.056-0.652-2.417-0.581-3.409 0.163-0.503 0.383-0.999 0.964-1.29 1.871-0.028 0.085-0.050 0.177-0.064 0.269v0.007c1.24-1.935 3.026-2.069 3.026-2.069s1.772-0.149 2.97 1.58c-0.014-0.085-0.035-0.17-0.057-0.255z"></path>
<path fill="#374656" style="fill: var(--color6, #374656)" d="M20.264 6.618c0.163-0.588 0.9-0.78 1.999-0.475 0.928 0.262 2.828 1.34 3.728 3.544 0.163 0.404-0.283 0.475-0.475 0.191-0.659-0.978-2.707-2.566-4.571-2.877-0.758-0.128-0.68-0.383-0.68-0.383z"></path>
<path fill="#374656" style="fill: var(--color6, #374656)" d="M20.361 11.352c1.056-0.652 2.417-0.581 3.409 0.163 0.503 0.383 0.999 0.964 1.29 1.871 0.050 0.149 0.085 0.312 0.092 0.475 0.021 0.326-0.206 0.617-0.574 0.276-2.814-2.658-4.784 0.078-4.784 0.078-0.383 0.276-0.773-0.298-0.695-0.829 0.021-0.156 0.043-0.319 0.078-0.461 0.227-0.78 0.688-1.269 1.184-1.573z"></path>
<path fill="#000" style="fill: var(--color7, #000)" d="M19.186 12.919c0.099-0.319 0.234-0.595 0.383-0.822 0.227-0.326 0.503-0.567 0.793-0.744 1.056-0.652 2.417-0.581 3.409 0.163 0.503 0.383 0.999 0.964 1.29 1.871 0.028 0.085 0.050 0.177 0.064 0.269v0.007c-1.24-1.935-3.026-2.069-3.026-2.069s-1.772-0.149-2.97 1.58c0.014-0.085 0.035-0.17 0.057-0.255z"></path>
<path fill="#fff" style="fill: var(--color4, #fff)" d="M24.919 20.934c0.106-0.156-0.064-0.354-0.234-0.276-1.091 0.475-3.685 1.297-8.448 1.297-4.918 0-7.392-0.794-8.441-1.276-0.17-0.078-0.34 0.12-0.234 0.276 1.495 2.204 4.146 4.515 8.675 4.515 4.529-0.007 7.179-2.325 8.682-4.536z"></path>
</symbol>
<symbol id="icon-normal-active" viewBox="0 0 32 32">
<path fill="#ffdf30" style="fill: var(--color1, #ffdf30)" d="M16 32c8.837 0 16-7.163 16-16s-7.163-16-16-16c-8.837 0-16 7.163-16 16s7.163 16 16 16z"></path>
<path fill="#374656" style="fill: var(--color6, #374656)" d="M13.247 10.431c0.095-0.724-0.505-1.267-1.629-1.41-0.962-0.124-3.143 0.238-4.876 2.286-0.324 0.381 0.057 0.657 0.362 0.428 1.010-0.79 3.543-1.648 5.371-1.162 0.733 0.181 0.771-0.143 0.771-0.143z"></path>
<path fill="#374656" style="fill: var(--color6, #374656)" d="M11.029 17.745c0.81 0 1.467-0.994 1.467-2.219s-0.657-2.219-1.467-2.219c-0.81 0-1.467 0.993-1.467 2.219s0.657 2.219 1.467 2.219z"></path>
<path fill="#000" style="fill: var(--color7, #000)" opacity="0.3" d="M11.029 14.060c0.629 0 1.181 0.552 1.467 1.362-0.019-1.2-0.667-2.162-1.467-2.162s-1.448 0.962-1.467 2.162c0.286-0.809 0.829-1.362 1.467-1.362z"></path>
<path fill="#374656" style="fill: var(--color6, #374656)" d="M20.971 17.745c0.81 0 1.467-0.994 1.467-2.219s-0.657-2.219-1.467-2.219-1.467 0.993-1.467 2.219c0 1.226 0.657 2.219 1.467 2.219z"></path>
<path fill="#000" style="fill: var(--color7, #000)" opacity="0.3" d="M20.971 14.117c-0.629 0-1.181 0.552-1.467 1.362 0.019-1.2 0.667-2.162 1.467-2.162s1.448 0.962 1.467 2.162c-0.286-0.809-0.829-1.362-1.467-1.362z"></path>
<path fill="#374656" style="fill: var(--color6, #374656)" d="M18.752 10.431c-0.095-0.724 0.505-1.267 1.629-1.41 0.962-0.124 3.143 0.238 4.876 2.286 0.324 0.381-0.057 0.657-0.362 0.428-1.009-0.79-3.543-1.648-5.371-1.162-0.733 0.181-0.771-0.143-0.771-0.143z"></path>
<path fill="#374656" style="fill: var(--color6, #374656)" d="M22.42 23.746h-12.838c-0.39 0-0.714-0.324-0.714-0.714s0.324-0.714 0.714-0.714h12.838c0.39 0 0.714 0.324 0.714 0.714s-0.324 0.714-0.714 0.714z"></path>
<path fill="#000" style="fill: var(--color7, #000)" opacity="0.3" d="M9.515 22.698h12.981c0.276 0 0.524 0.162 0.638 0.39 0-0.019 0-0.038 0-0.057 0-0.39-0.324-0.714-0.714-0.714h-12.838c-0.39 0-0.714 0.324-0.714 0.714 0 0.019 0 0.038 0 0.057 0.124-0.238 0.362-0.39 0.648-0.39z"></path>
</symbol>
<symbol id="icon-sad-active" viewBox="0 0 32 32">
<path fill="#ffdf30" style="fill: var(--color1, #ffdf30)" d="M16 32c8.837 0 16-7.163 16-16s-7.163-16-16-16c-8.837 0-16 7.163-16 16s7.163 16 16 16z"></path>
<path fill="#374656" style="fill: var(--color6, #374656)" d="M15.946 19.050c0 0 3.161-0.014 4.245 2.502 0.071 0.156 0.113 0.326 0.128 0.503 0.028 0.347-0.213 0.709-0.822 0.475-0.964-0.376-2.615-0.574-3.551-0.574-0.928 0-2.587 0.191-3.551 0.574-0.602 0.234-0.843-0.128-0.822-0.475 0.014-0.177 0.057-0.347 0.127-0.503 1.084-2.509 4.245-2.502 4.245-2.502z"></path>
<path fill="#374656" style="fill: var(--color6, #374656)" d="M11.262 16.719c0.81 0 1.467-0.993 1.467-2.218s-0.657-2.218-1.467-2.218c-0.81 0-1.467 0.993-1.467 2.218s0.657 2.218 1.467 2.218z"></path>
<path fill="#000" style="fill: var(--color7, #000)" d="M10.681 13.707c0.858 0 1.573 0.879 1.779 2.069 0.17-0.361 0.27-0.801 0.27-1.276 0-1.226-0.659-2.218-1.467-2.218-0.702 0-1.29 0.744-1.432 1.743 0.255-0.206 0.546-0.319 0.85-0.319z"></path>
<path fill="#374656" style="fill: var(--color6, #374656)" d="M9.696 9.1c-1.311 0-2.438 1.51-0.971 1.743s4.139 1.495 5.266 2.367c0.085 0.099 0.418 0.071 0.397-0.191-0.007-0.999-3.097-3.919-4.692-3.919z"></path>
<path fill="#000" style="fill: var(--color7, #000)" d="M15.946 19.879c0 0 2.573-0.007 4.33 1.97-0.021-0.099-0.050-0.198-0.092-0.291-1.084-2.516-4.245-2.502-4.245-2.502s-3.161-0.014-4.245 2.502c-0.043 0.092-0.071 0.191-0.092 0.291 1.765-1.977 4.344-1.97 4.344-1.97z"></path>
<path fill="#374656" style="fill: var(--color6, #374656)" d="M21.213 16.719c0.81 0 1.467-0.993 1.467-2.218s-0.657-2.218-1.467-2.218c-0.81 0-1.467 0.993-1.467 2.218s0.657 2.218 1.467 2.218z"></path>
<path fill="#000" style="fill: var(--color7, #000)" d="M21.794 13.707c-0.858 0-1.573 0.879-1.779 2.069-0.17-0.361-0.269-0.801-0.269-1.276 0-1.226 0.659-2.218 1.467-2.218 0.702 0 1.29 0.744 1.432 1.743-0.255-0.206-0.546-0.319-0.851-0.319z"></path>
<path fill="#374656" style="fill: var(--color6, #374656)" d="M22.779 9.1c1.311 0 2.438 1.51 0.971 1.743s-4.139 1.495-5.266 2.367c-0.085 0.099-0.418 0.071-0.397-0.191 0.007-0.999 3.097-3.919 4.692-3.919z"></path>
</symbol>
<symbol id="icon-happy" viewBox="0 0 35 32">
<path fill="#374656" style="fill: var(--color6, #374656)" d="M32.804 15.824c-0.173-0.065-0.367-0.076-0.54-0.021-4.903 1.404-9.99 2.106-15.13 2.106s-10.238-0.713-15.13-2.106c-0.184-0.054-0.367-0.043-0.54 0.021-0.529 0.216-1.371 1.015-0.259 4.071v0.011c1.642 3.91 5.994 10.778 15.918 10.778 9.903 0 14.255-6.879 15.94-10.778 1.101-3.067 0.27-3.866-0.259-4.082z"></path>
<path fill="#374656" style="fill: var(--color6, #374656)" d="M10.988 0.942c-0.248-0.896-1.372-1.188-3.046-0.724-1.415 0.4-4.309 2.041-5.681 5.4-0.248 0.616 0.432 0.724 0.724 0.292 1.004-1.49 4.125-3.909 6.966-4.385 1.156-0.194 1.037-0.583 1.037-0.583z"></path>
<path fill="#374656" style="fill: var(--color6, #374656)" d="M10.838 8.156c-1.609-0.994-3.683-0.886-5.195 0.248-0.767 0.583-1.523 1.469-1.966 2.851-0.076 0.227-0.13 0.475-0.14 0.724-0.032 0.497 0.313 0.94 0.875 0.421 4.287-4.050 7.29 0.119 7.29 0.119 0.583 0.421 1.177-0.454 1.058-1.264-0.032-0.238-0.065-0.486-0.119-0.702-0.346-1.188-1.048-1.933-1.804-2.398z"></path>
<path fill="#000" style="fill: var(--color7, #000)" opacity="0.3" d="M32.491 15.759c-0.032 0-0.065 0-0.108 0.011-4.946 1.426-10.076 2.149-15.271 2.149s-10.324-0.724-15.271-2.149c-0.032-0.011-0.065-0.011-0.108-0.011-0.335 0.032-1.933 0.367-0.562 4.147v0.011c0.67 1.577 1.782 3.639 3.521 5.529-1.631-1.933 0.378-3.002 3.953-2.57s8.467 0.443 8.467 0.443 4.881-0.011 8.467-0.443c3.575-0.432 5.583 0.637 3.953 2.57 1.739-1.89 2.851-3.953 3.521-5.529v-0.011c1.372-3.791-0.227-4.125-0.562-4.147z"></path>
<path fill="#fff" style="fill: var(--color4, #fff)" d="M29.737 21.072c1.361-0.292 2.387-1.426 2.516-2.819l0.13-1.361c-4.946 1.393-10.076 2.106-15.26 2.106s-10.314-0.713-15.26-2.106l0.13 1.361c0.13 1.382 1.156 2.516 2.516 2.819 4.125 0.896 8.359 1.339 12.614 1.339s8.489-0.454 12.614-1.339z"></path>
<path fill="#000" style="fill: var(--color7, #000)" opacity="0.3" d="M12.63 10.543c-0.151-0.486-0.356-0.907-0.583-1.253-0.346-0.497-0.767-0.864-1.21-1.134-1.609-0.994-3.683-0.886-5.195 0.248-0.767 0.583-1.523 1.469-1.966 2.851-0.043 0.13-0.076 0.27-0.097 0.41v0.011c1.89-2.948 4.611-3.153 4.611-3.153s2.7-0.227 4.525 2.408c-0.022-0.13-0.054-0.259-0.086-0.389z"></path>
<path fill="#374656" style="fill: var(--color6, #374656)" d="M23.259 0.942c0.248-0.896 1.372-1.188 3.046-0.724 1.415 0.4 4.309 2.041 5.68 5.4 0.249 0.616-0.432 0.724-0.724 0.292-1.004-1.49-4.125-3.909-6.966-4.385-1.156-0.194-1.037-0.583-1.037-0.583z"></path>
<path fill="#374656" style="fill: var(--color6, #374656)" d="M23.408 8.156c1.609-0.994 3.683-0.886 5.195 0.248 0.767 0.583 1.523 1.469 1.966 2.851 0.076 0.227 0.13 0.475 0.14 0.724 0.032 0.497-0.313 0.94-0.875 0.421-4.287-4.050-7.29 0.119-7.29 0.119-0.583 0.421-1.177-0.454-1.058-1.264 0.032-0.238 0.065-0.486 0.119-0.702 0.346-1.188 1.048-1.933 1.804-2.398z"></path>
<path fill="#000" style="fill: var(--color7, #000)" opacity="0.3" d="M21.616 10.543c0.151-0.486 0.356-0.907 0.583-1.253 0.346-0.497 0.767-0.864 1.21-1.134 1.609-0.994 3.683-0.886 5.195 0.248 0.767 0.583 1.523 1.469 1.966 2.851 0.043 0.13 0.076 0.27 0.097 0.41v0.011c-1.89-2.948-4.611-3.153-4.611-3.153s-2.7-0.227-4.525 2.408c0.022-0.13 0.054-0.259 0.086-0.389z"></path>
<path fill="#fff" style="fill: var(--color4, #fff)" d="M30.353 22.757c0.162-0.238-0.097-0.54-0.356-0.421-1.663 0.724-5.616 1.976-12.873 1.976-7.495 0-11.264-1.209-12.862-1.944-0.259-0.119-0.518 0.184-0.356 0.421 2.279 3.359 6.318 6.879 13.219 6.879 6.901-0.011 10.94-3.542 13.23-6.912z"></path>
</symbol>
<symbol id="icon-normal" viewBox="0 0 43 32">
<path fill="#374656" style="fill: var(--color6, #374656)" d="M15.461 3.053c0.203-1.544-1.077-2.702-3.474-3.007-2.052-0.264-6.705 0.508-10.403 4.876-0.691 0.813 0.122 1.402 0.772 0.914 2.154-1.686 7.558-3.515 11.459-2.479 1.564 0.386 1.646-0.305 1.646-0.305z"></path>
<path fill="#374656" style="fill: var(--color6, #374656)" d="M10.729 18.657c1.728 0 3.129-2.119 3.129-4.734s-1.401-4.734-3.129-4.734c-1.728 0-3.129 2.119-3.129 4.734s1.401 4.734 3.129 4.734z"></path>
<path fill="#000" style="fill: var(--color7, #000)" opacity="0.3" d="M10.729 10.794c1.341 0 2.519 1.178 3.129 2.905-0.041-2.56-1.422-4.612-3.129-4.612s-3.088 2.052-3.129 4.612c0.61-1.727 1.768-2.905 3.129-2.905z"></path>
<path fill="#374656" style="fill: var(--color6, #374656)" d="M31.937 18.657c1.728 0 3.129-2.119 3.129-4.734s-1.401-4.734-3.129-4.734c-1.728 0-3.129 2.119-3.129 4.734s1.401 4.734 3.129 4.734z"></path>
<path fill="#000" style="fill: var(--color7, #000)" opacity="0.3" d="M31.937 10.917c-1.341 0-2.519 1.178-3.129 2.905 0.041-2.56 1.422-4.612 3.129-4.612s3.088 2.052 3.129 4.612c-0.609-1.727-1.768-2.905-3.129-2.905z"></path>
<path fill="#374656" style="fill: var(--color6, #374656)" d="M27.204 3.053c-0.203-1.544 1.077-2.702 3.474-3.007 2.052-0.264 6.705 0.508 10.403 4.876 0.691 0.813-0.122 1.402-0.772 0.914-2.154-1.686-7.558-3.515-11.459-2.479-1.565 0.386-1.646-0.305-1.646-0.305z"></path>
<path fill="#374656" style="fill: var(--color6, #374656)" d="M35.028 31.457h-27.388c-0.833 0-1.524-0.691-1.524-1.524s0.691-1.524 1.524-1.524h27.388c0.833 0 1.524 0.691 1.524 1.524s-0.691 1.524-1.524 1.524z"></path>
<path fill="#000" style="fill: var(--color7, #000)" opacity="0.3" d="M7.498 29.223h27.693c0.589 0 1.117 0.345 1.361 0.833 0-0.041 0-0.081 0-0.122 0-0.833-0.691-1.524-1.524-1.524h-27.388c-0.833 0-1.524 0.691-1.524 1.524 0 0.041 0 0.081 0 0.122 0.264-0.508 0.772-0.833 1.382-0.833z"></path>
</symbol>
<symbol id="icon-sad" viewBox="0 0 39 32">
<path fill="#374656" style="fill: var(--color6, #374656)" d="M18.163 22.972c0 0 7.225-0.032 9.703 5.718 0.162 0.357 0.259 0.745 0.292 1.15 0.065 0.794-0.486 1.62-1.879 1.085-2.203-0.859-5.978-1.312-8.116-1.312-2.122 0-5.913 0.438-8.116 1.312-1.377 0.534-1.928-0.292-1.879-1.085 0.032-0.405 0.13-0.794 0.292-1.15 2.479-5.734 9.703-5.718 9.703-5.718z"></path>
<path fill="#374656" style="fill: var(--color6, #374656)" d="M7.456 17.643c1.852 0 3.353-2.27 3.353-5.070s-1.501-5.070-3.353-5.070c-1.852 0-3.353 2.27-3.353 5.070s1.501 5.070 3.353 5.070z"></path>
<path fill="#000" style="fill: var(--color7, #000)" opacity="0.3" d="M6.127 10.758c1.96 0 3.596 2.009 4.066 4.73 0.389-0.826 0.616-1.831 0.616-2.916 0-2.803-1.506-5.070-3.353-5.070-1.604 0-2.948 1.701-3.272 3.985 0.583-0.47 1.247-0.729 1.944-0.729z"></path>
<path fill="#374656" style="fill: var(--color6, #374656)" d="M3.876 0.229c-2.997 0-5.573 3.45-2.219 3.985s9.46 3.418 12.036 5.41c0.194 0.227 0.956 0.162 0.907-0.437-0.016-2.284-7.079-8.958-10.724-8.958z"></path>
<path fill="#000" style="fill: var(--color7, #000)" opacity="0.3" d="M18.162 24.867c0 0 5.88-0.016 9.898 4.503-0.049-0.227-0.113-0.453-0.21-0.664-2.479-5.751-9.704-5.718-9.704-5.718s-7.225-0.032-9.703 5.718c-0.097 0.21-0.162 0.437-0.21 0.664 4.034-4.52 9.93-4.503 9.93-4.503z"></path>
<path fill="#374656" style="fill: var(--color6, #374656)" d="M30.201 17.643c1.852 0 3.353-2.27 3.353-5.070s-1.501-5.070-3.353-5.070c-1.852 0-3.353 2.27-3.353 5.070s1.501 5.070 3.353 5.070z"></path>
<path fill="#000" style="fill: var(--color7, #000)" opacity="0.3" d="M31.53 10.758c-1.96 0-3.596 2.009-4.066 4.73-0.389-0.826-0.616-1.831-0.616-2.916 0-2.803 1.506-5.070 3.353-5.070 1.604 0 2.948 1.701 3.272 3.985-0.583-0.47-1.248-0.729-1.944-0.729z"></path>
<path fill="#374656" style="fill: var(--color6, #374656)" d="M33.78 0.229c2.997 0 5.573 3.45 2.219 3.985s-9.46 3.418-12.036 5.41c-0.194 0.227-0.956 0.162-0.907-0.437 0.016-2.284 7.079-8.958 10.724-8.958z"></path>
</symbol>
<symbol id="icon-add-icon" viewBox="0 0 32 32">
<path d="M32 18.286h-13.714v13.714h-4.571v-13.714h-13.714v-4.571h13.714v-13.714h4.571v13.714h13.714v4.571z"></path>
</symbol>
<symbol id="icon-arrow" viewBox="0 0 32 32">
<path fill="#374656" style="fill: var(--color6, #374656)" d="M3.304 0.845v4.908l19.442 0.017-21.183 21.183 3.481 3.481 21.183-21.183 0.017 19.442h4.908v-27.849h-27.849z"></path>
</symbol>
<symbol id="icon-bell" viewBox="0 0 32 32">
<path fill="#374656" style="fill: var(--color6, #374656)" d="M16 32c1.76 0 3.2-1.44 3.2-3.2h-6.4c0 1.76 1.44 3.2 3.2 3.2zM25.6 22.4v-8c0-4.912-2.608-9.024-7.2-10.112v-1.088c0-1.328-1.072-2.4-2.4-2.4s-2.4 1.072-2.4 2.4v1.088c-4.576 1.088-7.2 5.184-7.2 10.112v8l-3.2 3.2v1.6h25.6v-1.6l-3.2-3.2zM22.4 24h-12.8v-9.6c0-3.968 2.416-7.2 6.4-7.2s6.4 3.232 6.4 7.2v9.6z"></path>
</symbol>
<symbol id="icon-chat" viewBox="0 0 32 32">
<path  d="M28.192 0.762h-24.381c-1.676 0-3.048 1.371-3.048 3.048v27.429l6.095-6.095h21.333c1.676 0 3.048-1.371 3.048-3.048v-18.286c0-1.676-1.371-3.048-3.048-3.048zM28.192 22.095h-22.598l-1.783 1.783v-20.069h24.381v18.286zM8.382 11.428h3.048v3.048h-3.048v-3.048zM20.573 11.428h3.048v3.048h-3.048v-3.048zM14.478 11.428h3.048v3.048h-3.048v-3.048z"></path>
</symbol>
<symbol id="icon-check" viewBox="0 0 32 32">
<path fill="#fff" style="fill: var(--color4, #fff)" d="M10.667 23.466l-7.467-7.467-2.489 2.489 9.956 9.956 21.333-21.333-2.489-2.489-18.844 18.844z"></path>
</symbol>
<symbol id="icon-copy" viewBox="0 0 32 32">
<path fill="#374656" style="fill: var(--color6, #374656)" d="M26.526 28.727h-15.439v-19.798h15.439v19.798zM26.526 6.101h-15.439c-0.744 0-1.458 0.298-1.985 0.828s-0.822 1.25-0.822 2v19.798c0 0.75 0.296 1.47 0.822 2s1.24 0.828 1.985 0.828h15.439c0.744 0 1.458-0.298 1.985-0.828s0.822-1.25 0.822-2v-19.798c0-0.75-0.296-1.47-0.822-2s-1.24-0.828-1.985-0.828zM22.316 0.444h-16.842c-0.744 0-1.458 0.298-1.985 0.828s-0.822 1.25-0.822 2v19.798h2.807v-19.798h16.842v-2.828z"></path>
</symbol>
<symbol id="icon-cross" viewBox="0 0 32 32">
<path  d="M27.314 31.085l-11.314-11.314-11.314 11.314-3.771-3.771 11.314-11.314-11.314-11.314 3.771-3.771 11.314 11.314 11.314-11.314 3.771 3.771-11.314 11.314 11.314 11.314-3.771 3.771z"></path>
</symbol>
<symbol id="icon-cross-input" viewBox="0 0 32 32">
<path fill="#374656" style="fill: var(--color6, #374656)" d="M27.314 31.085l-11.314-11.314-11.314 11.314-3.771-3.771 11.314-11.314-11.314-11.314 3.771-3.771 11.314 11.314 11.314-11.314 3.771 3.771-11.314 11.314 11.314 11.314-3.771 3.771z"></path>
</symbol>
<symbol id="icon-done" viewBox="0 0 32 32">
<path fill="#788392" style="fill: var(--color9, #788392)" d="M8.933 24l-7.533-7.533 1.9-1.867 7.533 7.533-1.9 1.867zM16.466 24l-7.533-7.533 1.867-1.9 5.667 5.667 12.267-12.267 1.867 1.9-14.133 14.133zM16.466 16.467l-1.9-1.867 6.6-6.6 1.9 1.867-6.6 6.6z"></path>
</symbol>
<symbol id="icon-email" viewBox="0 0 32 32">
<path d="M31.24 6.857c0-1.676-1.371-3.048-3.048-3.048h-24.381c-1.676 0-3.048 1.371-3.048 3.048v18.286c0 1.676 1.371 3.048 3.048 3.048h24.381c1.676 0 3.048-1.371 3.048-3.048v-18.286zM28.192 6.857l-12.191 7.619-12.19-7.619h24.381zM28.192 25.143h-24.381v-15.238l12.19 7.619 12.191-7.619v15.238z"></path>
</symbol>
<symbol id="icon-exclamation" viewBox="0 0 32 32">
<path fill="#ff4081" style="fill: var(--color10, #ff4081)" d="M16 31.429c-0.943 0-1.75-0.336-2.421-1.007s-1.007-1.479-1.007-2.422 0.336-1.75 1.007-2.422c0.671-0.671 1.479-1.007 2.421-1.007s1.75 0.336 2.421 1.007c0.671 0.672 1.007 1.479 1.007 2.422s-0.336 1.75-1.007 2.422c-0.671 0.671-1.479 1.007-2.421 1.007zM12.571 21.143v-20.571h6.857v20.571h-6.857z"></path>
</symbol>
<symbol id="icon-eye" viewBox="0 0 32 32">
<path d="M16 8c5.513 0 10.429 3.098 12.829 8-2.4 4.902-7.302 8-12.829 8s-10.429-3.098-12.829-8c2.4-4.902 7.316-8 12.829-8zM16 5.091c-7.273 0-13.484 4.524-16 10.909 2.516 6.385 8.727 10.909 16 10.909s13.484-4.524 16-10.909c-2.516-6.385-8.727-10.909-16-10.909zM16 12.364c2.007 0 3.636 1.629 3.636 3.636s-1.629 3.636-3.636 3.636c-2.007 0-3.636-1.629-3.636-3.636s1.629-3.636 3.636-3.636zM16 9.455c-3.607 0-6.545 2.938-6.545 6.545s2.938 6.545 6.545 6.545c3.607 0 6.545-2.938 6.545-6.545s-2.938-6.545-6.545-6.545z"></path>
</symbol>
<symbol id="icon-for-select" viewBox="0 0 32 32">
<path d="M28.24 6.12l-12.24 12.213-12.24-12.213-3.76 3.76 16 16 16-16-3.76-3.76z"></path>
</symbol>
<symbol id="icon-in-progress" viewBox="0 0 32 32">
<path fill="#f4bb00" style="fill: var(--color11, #f4bb00)" d="M8.5 18.25c0.625 0 1.156-0.219 1.594-0.656s0.656-0.969 0.656-1.594-0.219-1.156-0.656-1.594c-0.438-0.438-0.969-0.656-1.594-0.656s-1.156 0.219-1.594 0.656c-0.437 0.438-0.656 0.969-0.656 1.594s0.219 1.156 0.656 1.594c0.438 0.437 0.969 0.656 1.594 0.656zM16 18.25c0.625 0 1.156-0.219 1.594-0.656s0.656-0.969 0.656-1.594-0.219-1.156-0.656-1.594c-0.438-0.438-0.969-0.656-1.594-0.656s-1.156 0.219-1.594 0.656c-0.438 0.438-0.656 0.969-0.656 1.594s0.219 1.156 0.656 1.594c0.438 0.437 0.969 0.656 1.594 0.656zM23.5 18.25c0.625 0 1.156-0.219 1.594-0.656s0.656-0.969 0.656-1.594-0.219-1.156-0.656-1.594c-0.438-0.438-0.969-0.656-1.594-0.656s-1.156 0.219-1.594 0.656c-0.437 0.438-0.656 0.969-0.656 1.594s0.219 1.156 0.656 1.594c0.438 0.437 0.969 0.656 1.594 0.656zM16 31c-2.075 0-4.025-0.394-5.85-1.181s-3.412-1.856-4.763-3.206-2.419-2.938-3.206-4.763c-0.788-1.825-1.181-3.775-1.181-5.85s0.394-4.025 1.181-5.85c0.788-1.825 1.856-3.412 3.206-4.763s2.937-2.419 4.763-3.206c1.825-0.788 3.775-1.181 5.85-1.181s4.025 0.394 5.85 1.181c1.825 0.788 3.413 1.856 4.763 3.206s2.419 2.937 3.206 4.763c0.787 1.825 1.181 3.775 1.181 5.85s-0.394 4.025-1.181 5.85c-0.788 1.825-1.856 3.413-3.206 4.763s-2.938 2.419-4.763 3.206c-1.825 0.787-3.775 1.181-5.85 1.181zM16 28c3.35 0 6.188-1.162 8.513-3.487s3.487-5.163 3.487-8.513c0-3.35-1.162-6.188-3.487-8.512s-5.163-3.487-8.513-3.487c-3.35 0-6.188 1.163-8.512 3.487s-3.487 5.162-3.487 8.512c0 3.35 1.163 6.188 3.487 8.513s5.162 3.487 8.512 3.487z"></path>
</symbol>
<symbol id="icon-normal-gray" viewBox="0 0 32 32">
<path fill="#dbdbdb" style="fill: var(--color5, #dbdbdb)" d="M16 32c8.837 0 16-7.163 16-16s-7.163-16-16-16-16 7.163-16 16c0 8.837 7.163 16 16 16z"></path>
<path fill="#374656" style="fill: var(--color6, #374656)" d="M13.247 9.431c0.095-0.724-0.505-1.267-1.629-1.41-0.962-0.124-3.143 0.238-4.876 2.286-0.324 0.381 0.057 0.657 0.362 0.428 1.010-0.79 3.543-1.648 5.371-1.162 0.733 0.181 0.771-0.143 0.771-0.143z"></path>
<path fill="#374656" style="fill: var(--color6, #374656)" d="M11.029 16.745c0.81 0 1.467-0.994 1.467-2.219s-0.657-2.219-1.467-2.219c-0.81 0-1.467 0.993-1.467 2.219s0.657 2.219 1.467 2.219z"></path>
<path fill="#000" style="fill: var(--color7, #000)" opacity="0.3" d="M11.029 13.060c0.629 0 1.181 0.552 1.467 1.362-0.019-1.2-0.667-2.162-1.467-2.162s-1.448 0.962-1.467 2.162c0.286-0.809 0.829-1.362 1.467-1.362z"></path>
<path fill="#374656" style="fill: var(--color6, #374656)" d="M20.971 16.745c0.81 0 1.467-0.994 1.467-2.219s-0.657-2.219-1.467-2.219-1.467 0.993-1.467 2.219c0 1.226 0.657 2.219 1.467 2.219z"></path>
<path fill="#000" style="fill: var(--color7, #000)" opacity="0.3" d="M20.971 13.117c-0.629 0-1.181 0.552-1.467 1.362 0.019-1.2 0.667-2.162 1.467-2.162s1.448 0.962 1.467 2.162c-0.286-0.809-0.829-1.362-1.467-1.362z"></path>
<path fill="#374656" style="fill: var(--color6, #374656)" d="M18.752 9.431c-0.095-0.724 0.505-1.267 1.629-1.41 0.962-0.124 3.143 0.238 4.876 2.286 0.324 0.381-0.057 0.657-0.362 0.428-1.009-0.79-3.543-1.648-5.371-1.162-0.733 0.181-0.771-0.143-0.771-0.143z"></path>
<path fill="#374656" style="fill: var(--color6, #374656)" d="M22.42 22.746h-12.838c-0.39 0-0.714-0.324-0.714-0.714s0.324-0.714 0.714-0.714h12.838c0.39 0 0.714 0.324 0.714 0.714s-0.324 0.714-0.714 0.714z"></path>
<path fill="#000" style="fill: var(--color7, #000)" opacity="0.3" d="M9.515 21.698h12.981c0.276 0 0.524 0.162 0.638 0.39 0-0.019 0-0.038 0-0.057 0-0.39-0.324-0.714-0.714-0.714h-12.838c-0.39 0-0.714 0.324-0.714 0.714 0 0.019 0 0.038 0 0.057 0.124-0.238 0.362-0.39 0.648-0.39z"></path>
</symbol>
<symbol id="icon-phone" viewBox="0 0 32 32">
<path d="M29.128 22.991c-2.035 0-4.020-0.328-5.858-0.935-0.164-0.066-0.345-0.082-0.509-0.082-0.427 0-0.837 0.164-1.165 0.476l-3.61 3.61c-4.644-2.38-8.451-6.17-10.814-10.814l3.61-3.61c0.46-0.459 0.591-1.099 0.41-1.674-0.607-1.838-0.935-3.807-0.935-5.858 0-0.903-0.738-1.641-1.641-1.641h-5.744c-0.903 0-1.641 0.738-1.641 1.641 0 15.409 12.488 27.897 27.897 27.897 0.903 0 1.641-0.738 1.641-1.641v-5.727c0-0.903-0.738-1.641-1.641-1.641zM25.846 12.308h-4.25l8.238-8.238-2.314-2.314-8.238 8.238v-4.25h-3.282v9.846h9.846v-3.282z"></path>
</symbol>
<symbol id="icon-sad-gray" viewBox="0 0 32 32">
<path fill="#dbdbdb" style="fill: var(--color5, #dbdbdb)" d="M16 32c8.837 0 16-7.163 16-16s-7.163-16-16-16c-8.837 0-16 7.163-16 16s7.163 16 16 16z"></path>
<path fill="#374656" style="fill: var(--color6, #374656)" d="M15.946 19.050c0 0 3.161-0.014 4.245 2.502 0.071 0.156 0.113 0.326 0.128 0.503 0.028 0.347-0.213 0.709-0.822 0.475-0.964-0.376-2.615-0.574-3.551-0.574-0.928 0-2.587 0.191-3.551 0.574-0.602 0.234-0.843-0.128-0.822-0.475 0.014-0.177 0.057-0.347 0.127-0.503 1.084-2.509 4.245-2.502 4.245-2.502z"></path>
<path fill="#374656" style="fill: var(--color6, #374656)" d="M11.262 16.719c0.81 0 1.467-0.993 1.467-2.218s-0.657-2.218-1.467-2.218c-0.81 0-1.467 0.993-1.467 2.218s0.657 2.218 1.467 2.218z"></path>
<path fill="#000" style="fill: var(--color7, #000)" d="M10.681 13.707c0.858 0 1.573 0.879 1.779 2.069 0.17-0.361 0.27-0.801 0.27-1.276 0-1.226-0.659-2.218-1.467-2.218-0.702 0-1.29 0.744-1.432 1.743 0.255-0.206 0.546-0.319 0.85-0.319z"></path>
<path fill="#374656" style="fill: var(--color6, #374656)" d="M9.696 9.1c-1.311 0-2.438 1.51-0.971 1.743s4.139 1.495 5.266 2.367c0.085 0.099 0.418 0.071 0.397-0.191-0.007-0.999-3.097-3.919-4.692-3.919z"></path>
<path fill="#000" style="fill: var(--color7, #000)" d="M15.946 19.879c0 0 2.573-0.007 4.33 1.97-0.021-0.099-0.050-0.198-0.092-0.291-1.084-2.516-4.245-2.502-4.245-2.502s-3.161-0.014-4.245 2.502c-0.043 0.092-0.071 0.191-0.092 0.291 1.765-1.977 4.344-1.97 4.344-1.97z"></path>
<path fill="#374656" style="fill: var(--color6, #374656)" d="M21.213 16.719c0.81 0 1.467-0.993 1.467-2.218s-0.657-2.218-1.467-2.218c-0.81 0-1.467 0.993-1.467 2.218s0.657 2.218 1.467 2.218z"></path>
<path fill="#000" style="fill: var(--color7, #000)" d="M21.794 13.707c-0.858 0-1.573 0.879-1.779 2.069-0.17-0.361-0.269-0.801-0.269-1.276 0-1.226 0.659-2.218 1.467-2.218 0.702 0 1.29 0.744 1.432 1.743-0.255-0.206-0.546-0.319-0.851-0.319z"></path>
<path fill="#374656" style="fill: var(--color6, #374656)" d="M22.779 9.1c1.311 0 2.438 1.51 0.971 1.743s-4.139 1.495-5.266 2.367c-0.085 0.099-0.418 0.071-0.397-0.191 0.007-0.999 3.097-3.919 4.692-3.919z"></path>
</symbol>
<symbol id="icon-side-arrow" viewBox="0 0 32 32">
<path fill="#374656" style="fill: var(--color6, #374656)" d="M6.12 3.76l12.213 12.24-12.213 12.24 3.76 3.76 16-16-16-16-3.76 3.76z"></path>
</symbol>
</defs>
</svg>
