<svg width="16" height="16" viewBox="0 0 16 16" fill="none" xmlns="http://www.w3.org/2000/svg">
<path d="M4.25 9.125C4.5625 9.125 4.82812 9.01562 5.04688 8.79688C5.26562 8.57812 5.375 8.3125 5.375 8C5.375 7.6875 5.26562 7.42188 5.04688 7.20313C4.82812 6.98438 4.5625 6.875 4.25 6.875C3.9375 6.875 3.67188 6.98438 3.45312 7.20313C3.23438 7.42188 3.125 7.6875 3.125 8C3.125 8.3125 3.23438 8.57812 3.45312 8.79688C3.67188 9.01562 3.9375 9.125 4.25 9.125ZM8 9.125C8.3125 9.125 8.57812 9.01562 8.79688 8.79688C9.01562 8.57812 9.125 8.3125 9.125 8C9.125 7.6875 9.01562 7.42188 8.79688 7.20313C8.57812 6.98438 8.3125 6.875 8 6.875C7.6875 6.875 7.42188 6.98438 7.20313 7.20313C6.98438 7.42188 6.875 7.6875 6.875 8C6.875 8.3125 6.98438 8.57812 7.20313 8.79688C7.42188 9.01562 7.6875 9.125 8 9.125ZM11.75 9.125C12.0625 9.125 12.3281 9.01562 12.5469 8.79688C12.7656 8.57812 12.875 8.3125 12.875 8C12.875 7.6875 12.7656 7.42188 12.5469 7.20313C12.3281 6.98438 12.0625 6.875 11.75 6.875C11.4375 6.875 11.1719 6.98438 10.9531 7.20313C10.7344 7.42188 10.625 7.6875 10.625 8C10.625 8.3125 10.7344 8.57812 10.9531 8.79688C11.1719 9.01562 11.4375 9.125 11.75 9.125ZM8 15.5C6.9625 15.5 5.9875 15.3031 5.075 14.9094C4.1625 14.5156 3.36875 13.9813 2.69375 13.3063C2.01875 12.6313 1.48438 11.8375 1.09063 10.925C0.696875 10.0125 0.5 9.0375 0.5 8C0.5 6.9625 0.696875 5.9875 1.09063 5.075C1.48438 4.1625 2.01875 3.36875 2.69375 2.69375C3.36875 2.01875 4.1625 1.48438 5.075 1.09063C5.9875 0.696875 6.9625 0.5 8 0.5C9.0375 0.5 10.0125 0.696875 10.925 1.09063C11.8375 1.48438 12.6313 2.01875 13.3063 2.69375C13.9813 3.36875 14.5156 4.1625 14.9094 5.075C15.3031 5.9875 15.5 6.9625 15.5 8C15.5 9.0375 15.3031 10.0125 14.9094 10.925C14.5156 11.8375 13.9813 12.6313 13.3063 13.3063C12.6313 13.9813 11.8375 14.5156 10.925 14.9094C10.0125 15.3031 9.0375 15.5 8 15.5ZM8 14C9.675 14 11.0938 13.4188 12.2563 12.2563C13.4188 11.0938 14 9.675 14 8C14 6.325 13.4188 4.90625 12.2563 3.74375C11.0938 2.58125 9.675 2 8 2C6.325 2 4.90625 2.58125 3.74375 3.74375C2.58125 4.90625 2 6.325 2 8C2 9.675 2.58125 11.0938 3.74375 12.2563C4.90625 13.4188 6.325 14 8 14Z" fill="#F4BB00"/>
</svg>
