<svg width="32" height="32" viewBox="0 0 32 32" fill="none" xmlns="http://www.w3.org/2000/svg">
<path d="M16 32C24.8365 32 32 24.8365 32 16C32 7.16346 24.8365 0 16 0C7.16347 0 0 7.16346 0 16C0 24.8365 7.16347 32 16 32Z" fill="#DBDBDB"/>
<path d="M13.2474 9.43118C13.3427 8.70738 12.7427 8.16453 11.6189 8.02163C10.657 7.89783 8.47601 8.25973 6.74266 10.3074C6.41886 10.6883 6.79981 10.9645 7.10456 10.7359C8.11411 9.94548 10.6474 9.08833 12.476 9.57403C13.2093 9.75498 13.2474 9.43118 13.2474 9.43118Z" fill="#374656"/>
<path d="M11.0292 16.7455C11.8392 16.7455 12.4958 15.752 12.4958 14.5264C12.4958 13.3009 11.8392 12.3074 11.0292 12.3074C10.2191 12.3074 9.5625 13.3009 9.5625 14.5264C9.5625 15.752 10.2191 16.7455 11.0292 16.7455Z" fill="#374656"/>
<path opacity="0.3" d="M11.0292 13.0598C11.6577 13.0598 12.2101 13.6122 12.4958 14.4217C12.4768 13.2217 11.8292 12.2598 11.0292 12.2598C10.2292 12.2598 9.58155 13.2217 9.5625 14.4217C9.84825 13.6122 10.3911 13.0598 11.0292 13.0598Z" fill="black"/>
<path d="M20.9706 16.7455C21.7806 16.7455 22.4373 15.752 22.4373 14.5264C22.4373 13.3009 21.7806 12.3074 20.9706 12.3074C20.1606 12.3074 19.5039 13.3009 19.5039 14.5264C19.5039 15.752 20.1606 16.7455 20.9706 16.7455Z" fill="#374656"/>
<path opacity="0.3" d="M20.9706 13.1171C20.342 13.1171 19.7897 13.6695 19.5039 14.479C19.523 13.279 20.1706 12.3171 20.9706 12.3171C21.7706 12.3171 22.4182 13.279 22.4373 14.479C22.1516 13.6695 21.6087 13.1171 20.9706 13.1171Z" fill="black"/>
<path d="M18.752 9.43118C18.6568 8.70738 19.2568 8.16453 20.3806 8.02163C21.3425 7.89783 23.5235 8.25973 25.2568 10.3074C25.5806 10.6883 25.1997 10.9645 24.8949 10.7359C23.8854 9.94548 21.3521 9.08833 19.5235 9.57403C18.7901 9.75498 18.752 9.43118 18.752 9.43118Z" fill="#374656"/>
<path d="M22.4196 22.7457H9.58149C9.19104 22.7457 8.86719 22.4219 8.86719 22.0314C8.86719 21.6409 9.19104 21.3171 9.58149 21.3171H22.4196C22.8101 21.3171 23.1339 21.6409 23.1339 22.0314C23.1339 22.4219 22.8101 22.7457 22.4196 22.7457Z" fill="#374656"/>
<path opacity="0.3" d="M9.51484 21.6981H22.4958C22.772 21.6981 23.0196 21.86 23.1339 22.0885C23.1339 22.0695 23.1339 22.0504 23.1339 22.0314C23.1339 21.6409 22.8101 21.3171 22.4196 21.3171H9.58149C9.19104 21.3171 8.86719 21.6409 8.86719 22.0314C8.86719 22.0504 8.86719 22.0695 8.86719 22.0885C8.99104 21.8504 9.22914 21.6981 9.51484 21.6981Z" fill="black"/>
</svg>
