<svg width="32" height="32" viewBox="0 0 32 32" fill="none" xmlns="http://www.w3.org/2000/svg">
<path d="M16 32C24.8366 32 32 24.8366 32 16C32 7.16343 24.8366 0 16 0C7.16343 0 0 7.16343 0 16C0 24.8366 7.16343 32 16 32Z" fill="#FFDF30"/>
<path d="M13.2474 10.4312C13.3427 9.70738 12.7427 9.16453 11.6189 9.02163C10.657 8.89783 8.47601 9.25973 6.74266 11.3074C6.41886 11.6883 6.79981 11.9645 7.10456 11.7359C8.11411 10.9455 10.6474 10.0883 12.476 10.574C13.2093 10.755 13.2474 10.4312 13.2474 10.4312Z" fill="#374656"/>
<path d="M11.0292 17.7455C11.8392 17.7455 12.4958 16.752 12.4958 15.5264C12.4958 14.3009 11.8392 13.3074 11.0292 13.3074C10.2191 13.3074 9.5625 14.3009 9.5625 15.5264C9.5625 16.752 10.2191 17.7455 11.0292 17.7455Z" fill="#374656"/>
<path opacity="0.3" d="M11.0292 14.0598C11.6577 14.0598 12.2101 14.6122 12.4958 15.4217C12.4768 14.2217 11.8292 13.2598 11.0292 13.2598C10.2292 13.2598 9.58155 14.2217 9.5625 15.4217C9.84825 14.6122 10.3911 14.0598 11.0292 14.0598Z" fill="black"/>
<path d="M20.9706 17.7455C21.7806 17.7455 22.4373 16.752 22.4373 15.5264C22.4373 14.3009 21.7806 13.3074 20.9706 13.3074C20.1606 13.3074 19.5039 14.3009 19.5039 15.5264C19.5039 16.752 20.1606 17.7455 20.9706 17.7455Z" fill="#374656"/>
<path opacity="0.3" d="M20.9706 14.1171C20.342 14.1171 19.7897 14.6695 19.5039 15.479C19.523 14.279 20.1706 13.3171 20.9706 13.3171C21.7706 13.3171 22.4182 14.279 22.4373 15.479C22.1516 14.6695 21.6087 14.1171 20.9706 14.1171Z" fill="black"/>
<path d="M18.752 10.4312C18.6568 9.70738 19.2568 9.16453 20.3806 9.02163C21.3425 8.89783 23.5235 9.25973 25.2568 11.3074C25.5806 11.6883 25.1997 11.9645 24.8949 11.7359C23.8854 10.9455 21.3521 10.0883 19.5235 10.574C18.7901 10.755 18.752 10.4312 18.752 10.4312Z" fill="#374656"/>
<path d="M22.4196 23.7457H9.58149C9.19104 23.7457 8.86719 23.4219 8.86719 23.0314C8.86719 22.6409 9.19104 22.3171 9.58149 22.3171H22.4196C22.8101 22.3171 23.1339 22.6409 23.1339 23.0314C23.1339 23.4219 22.8101 23.7457 22.4196 23.7457Z" fill="#374656"/>
<path opacity="0.3" d="M9.51484 22.6981H22.4958C22.772 22.6981 23.0196 22.86 23.1339 23.0885C23.1339 23.0695 23.1339 23.0504 23.1339 23.0314C23.1339 22.6409 22.8101 22.3171 22.4196 22.3171H9.58149C9.19104 22.3171 8.86719 22.6409 8.86719 23.0314C8.86719 23.0504 8.86719 23.0695 8.86719 23.0885C8.99104 22.8504 9.22914 22.6981 9.51484 22.6981Z" fill="black"/>
</svg>
