<svg width="20" height="15" viewBox="0 0 20 15" fill="none" xmlns="http://www.w3.org/2000/svg">
<path d="M7.24741 1.43118C7.34266 0.707383 6.74266 0.164533 5.61886 0.0216329C4.65696 -0.102167 2.47601 0.259733 0.742661 2.30738C0.418861 2.68833 0.799811 2.96453 1.10456 2.73593C2.11411 1.94548 4.64741 1.08833 6.47601 1.57403C7.20931 1.75498 7.24741 1.43118 7.24741 1.43118Z" fill="#374656"/>
<path d="M5.0292 8.74547C5.8392 8.74547 6.49585 7.75197 6.49585 6.52642C6.49585 5.30087 5.8392 4.30737 5.0292 4.30737C4.21915 4.30737 3.5625 5.30087 3.5625 6.52642C3.5625 7.75197 4.21915 8.74547 5.0292 8.74547Z" fill="#374656"/>
<path opacity="0.3" d="M5.0292 5.05976C5.65775 5.05976 6.21015 5.61216 6.49585 6.42171C6.4768 5.22171 5.8292 4.25977 5.0292 4.25977C4.2292 4.25977 3.58155 5.22171 3.5625 6.42171C3.84825 5.61216 4.3911 5.05976 5.0292 5.05976Z" fill="black"/>
<path d="M14.9706 8.74547C15.7806 8.74547 16.4373 7.75197 16.4373 6.52642C16.4373 5.30087 15.7806 4.30737 14.9706 4.30737C14.1606 4.30737 13.5039 5.30087 13.5039 6.52642C13.5039 7.75197 14.1606 8.74547 14.9706 8.74547Z" fill="#374656"/>
<path opacity="0.3" d="M14.9706 5.11714C14.342 5.11714 13.7897 5.66949 13.5039 6.47904C13.523 5.27904 14.1706 4.31714 14.9706 4.31714C15.7706 4.31714 16.4182 5.27904 16.4373 6.47904C16.1516 5.66949 15.6087 5.11714 14.9706 5.11714Z" fill="black"/>
<path d="M12.752 1.43118C12.6568 0.707383 13.2568 0.164533 14.3806 0.0216329C15.3425 -0.102167 17.5235 0.259733 19.2568 2.30738C19.5806 2.68833 19.1997 2.96453 18.8949 2.73593C17.8854 1.94548 15.3521 1.08833 13.5235 1.57403C12.7901 1.75498 12.752 1.43118 12.752 1.43118Z" fill="#374656"/>
<path d="M16.4196 14.7457H3.58149C3.19104 14.7457 2.86719 14.4219 2.86719 14.0314C2.86719 13.6409 3.19104 13.3171 3.58149 13.3171H16.4196C16.8101 13.3171 17.1339 13.6409 17.1339 14.0314C17.1339 14.4219 16.8101 14.7457 16.4196 14.7457Z" fill="#374656"/>
<path opacity="0.3" d="M3.51484 13.6981H16.4958C16.772 13.6981 17.0196 13.86 17.1339 14.0885C17.1339 14.0695 17.1339 14.0504 17.1339 14.0314C17.1339 13.6409 16.8101 13.3171 16.4196 13.3171H3.58149C3.19104 13.3171 2.86719 13.6409 2.86719 14.0314C2.86719 14.0504 2.86719 14.0695 2.86719 14.0885C2.99104 13.8504 3.22914 13.6981 3.51484 13.6981Z" fill="black"/>
</svg>
