<svg width="12" height="13" viewBox="0 0 12 13" fill="none" xmlns="http://www.w3.org/2000/svg">
<path d="M11.3333 9.34002C10.5067 9.34002 9.7 9.20668 8.95333 8.96002C8.88667 8.93335 8.81333 8.92668 8.74667 8.92668C8.57333 8.92668 8.40667 8.99335 8.27333 9.12002L6.80667 10.5867C4.92 9.62002 3.37333 8.08002 2.41333 6.19335L3.88 4.72668C4.06667 4.54002 4.12 4.28002 4.04667 4.04668C3.8 3.30002 3.66667 2.50002 3.66667 1.66668C3.66667 1.30002 3.36667 1.00002 3 1.00002H0.666667C0.3 1.00002 0 1.30002 0 1.66668C0 7.92668 5.07333 13 11.3333 13C11.7 13 12 12.7 12 12.3333V10.0067C12 9.64002 11.7 9.34002 11.3333 9.34002ZM10 5.00002H8.27333L11.62 1.65335L10.68 0.713348L7.33333 4.06002V2.33335H6V6.33335H10V5.00002Z" fill="#3E83C4"/>
</svg>
