<svg width="32" height="32" viewBox="0 0 32 32" fill="none" xmlns="http://www.w3.org/2000/svg">
<path d="M16 32C24.8366 32 32 24.8366 32 16C32 7.16343 24.8366 0 16 0C7.16343 0 0 7.16343 0 16C0 24.8366 7.16343 32 16 32Z" fill="#FFDF30"/>
<path d="M15.9464 19.0502C15.9464 19.0502 19.1073 19.036 20.1916 21.552C20.2625 21.7079 20.305 21.878 20.3192 22.0552C20.3475 22.4024 20.1066 22.7639 19.4971 22.53C18.5332 22.1544 16.8819 21.956 15.9464 21.956C15.018 21.956 13.3596 22.1473 12.3957 22.53C11.7933 22.7639 11.5523 22.4024 11.5736 22.0552C11.5878 21.878 11.6303 21.7079 11.7011 21.552C12.7855 19.0431 15.9464 19.0502 15.9464 19.0502Z" fill="#374656"/>
<path d="M11.262 16.7187C12.0722 16.7187 12.729 15.7255 12.729 14.5004C12.729 13.2753 12.0722 12.2821 11.262 12.2821C10.4517 12.2821 9.79492 13.2753 9.79492 14.5004C9.79492 15.7255 10.4517 16.7187 11.262 16.7187Z" fill="#374656"/>
<path d="M10.6805 13.7066C11.5381 13.7066 12.2539 14.5855 12.4594 15.7761C12.6295 15.4147 12.729 14.9753 12.729 14.5004C12.729 13.2743 12.0699 12.2821 11.262 12.2821C10.5603 12.2821 9.97183 13.0263 9.83008 14.0256C10.0852 13.82 10.3758 13.7066 10.6805 13.7066Z" fill="black"/>
<path d="M9.69583 9.09998C8.38468 9.09998 7.25783 10.6095 8.72488 10.8434C10.1919 11.0773 12.8638 12.3388 13.9907 13.2105C14.0757 13.3098 14.4088 13.2814 14.3876 13.0192C14.3805 12.0199 11.2905 9.09998 9.69583 9.09998Z" fill="#374656"/>
<path d="M15.946 19.8794C15.946 19.8794 18.5187 19.8723 20.2763 21.8496C20.255 21.7504 20.2267 21.6512 20.1842 21.5591C19.0998 19.0431 15.9389 19.0573 15.9389 19.0573C15.9389 19.0573 12.778 19.0431 11.6937 21.5591C11.6512 21.6512 11.6228 21.7504 11.6016 21.8496C13.3663 19.8723 15.946 19.8794 15.946 19.8794Z" fill="black"/>
<path d="M21.2131 16.7187C22.0234 16.7187 22.6802 15.7255 22.6802 14.5004C22.6802 13.2753 22.0234 12.2821 21.2131 12.2821C20.4029 12.2821 19.7461 13.2753 19.7461 14.5004C19.7461 15.7255 20.4029 16.7187 21.2131 16.7187Z" fill="#374656"/>
<path d="M21.7943 13.7066C20.9367 13.7066 20.2209 14.5855 20.0154 15.7761C19.8453 15.4147 19.7461 14.9753 19.7461 14.5004C19.7461 13.2743 20.4052 12.2821 21.2131 12.2821C21.9148 12.2821 22.503 13.0263 22.6448 14.0256C22.3896 13.82 22.099 13.7066 21.7943 13.7066Z" fill="black"/>
<path d="M22.7787 9.09998C24.0898 9.09998 25.2167 10.6095 23.7496 10.8434C22.2826 11.0773 19.6107 12.3388 18.4838 13.2105C18.3988 13.3098 18.0657 13.2814 18.0869 13.0192C18.094 12.0199 21.1841 9.09998 22.7787 9.09998Z" fill="#374656"/>
</svg>
