<svg width="17" height="14" viewBox="0 0 17 14" fill="none" xmlns="http://www.w3.org/2000/svg">
<path d="M7.94635 10.0502C7.94635 10.0502 11.1073 10.0361 12.1916 12.552C12.2625 12.708 12.305 12.878 12.3192 13.0552C12.3475 13.4025 12.1066 13.7639 11.4971 13.5301C10.5332 13.1544 8.88185 12.956 7.94635 12.956C7.01795 12.956 5.35955 13.1474 4.39565 13.5301C3.79325 13.7639 3.5523 13.4025 3.57355 13.0552C3.58775 12.878 3.63025 12.708 3.7011 12.552C4.78545 10.0432 7.94635 10.0502 7.94635 10.0502Z" fill="#374656"/>
<path d="M3.26197 7.71873C4.07217 7.71873 4.72902 6.72553 4.72902 5.50043C4.72902 4.27528 4.07217 3.28214 3.26197 3.28214C2.45172 3.28214 1.79492 4.27528 1.79492 5.50043C1.79492 6.72553 2.45172 7.71873 3.26197 7.71873Z" fill="#374656"/>
<path opacity="0.3" d="M2.68053 4.70663C3.53808 4.70663 4.25388 5.58548 4.45943 6.77613C4.62953 6.41468 4.72873 5.97528 4.72873 5.50043C4.72873 4.27433 4.06963 3.28214 3.26168 3.28214C2.56003 3.28214 1.97183 4.02629 1.83008 5.02559C2.08523 4.82004 2.37578 4.70663 2.68053 4.70663Z" fill="black"/>
<path d="M1.69583 0.100006C0.384677 0.100006 -0.742173 1.60956 0.724877 1.84346C2.19193 2.07731 4.86383 3.33886 5.99068 4.21056C6.07573 4.30981 6.40883 4.28146 6.38758 4.01921C6.38048 3.01991 3.29048 0.100006 1.69583 0.100006Z" fill="#374656"/>
<path opacity="0.3" d="M7.94601 10.8794C7.94601 10.8794 10.5187 10.8723 12.2763 12.8496C12.255 12.7504 12.2267 12.6512 12.1842 12.5591C11.0998 10.0431 7.93891 10.0573 7.93891 10.0573C7.93891 10.0573 4.77801 10.0431 3.69366 12.5591C3.65116 12.6512 3.62281 12.7504 3.60156 12.8496C5.36626 10.8723 7.94601 10.8794 7.94601 10.8794Z" fill="black"/>
<path d="M13.2131 7.71873C14.0234 7.71873 14.6802 6.72553 14.6802 5.50043C14.6802 4.27528 14.0234 3.28214 13.2131 3.28214C12.4029 3.28214 11.7461 4.27528 11.7461 5.50043C11.7461 6.72553 12.4029 7.71873 13.2131 7.71873Z" fill="#374656"/>
<path opacity="0.3" d="M13.7943 4.70663C12.9367 4.70663 12.2209 5.58548 12.0154 6.77613C11.8453 6.41468 11.7461 5.97528 11.7461 5.50043C11.7461 4.27433 12.4052 3.28214 13.2131 3.28214C13.9148 3.28214 14.503 4.02629 14.6448 5.02559C14.3896 4.82004 14.099 4.70663 13.7943 4.70663Z" fill="black"/>
<path d="M14.7787 0.100006C16.0898 0.100006 17.2167 1.60956 15.7496 1.84346C14.2826 2.07731 11.6107 3.33886 10.4838 4.21056C10.3988 4.30981 10.0657 4.28146 10.0869 4.01921C10.094 3.01991 13.1841 0.100006 14.7787 0.100006Z" fill="#374656"/>
</svg>
